<svg width="21" height="20" viewBox="0 0 21 20" fill="none" xmlns="http://www.w3.org/2000/svg">
<path fill-rule="evenodd" clip-rule="evenodd" d="M6.729 0H14.229C17.6803 0 20.479 2.79875 20.479 6.25V13.75C20.479 17.2013 17.6803 20 14.229 20H6.729C3.27775 20 0.479004 17.2013 0.479004 13.75V6.25C0.479004 2.79875 3.27775 0 6.729 0ZM14.229 18.125C16.6415 18.125 18.604 16.1625 18.604 13.75V6.25C18.604 3.8375 16.6415 1.875 14.229 1.875H6.729C4.3165 1.875 2.354 3.8375 2.354 6.25V13.75C2.354 16.1625 4.3165 18.125 6.729 18.125H14.229Z" fill="#1E2833"/>
<path fill-rule="evenodd" clip-rule="evenodd" d="M5.479 10C5.479 7.23875 7.71775 5 10.479 5C13.2403 5 15.479 7.23875 15.479 10C15.479 12.7613 13.2403 15 10.479 15C7.71775 15 5.479 12.7613 5.479 10ZM7.354 10C7.354 11.7225 8.7565 13.125 10.479 13.125C12.2015 13.125 13.604 11.7225 13.604 10C13.604 8.27625 12.2015 6.875 10.479 6.875C8.7565 6.875 7.354 8.27625 7.354 10Z" fill="#1E2833"/>
<circle cx="15.8542" cy="4.62523" r="0.66625" fill="#1E2833"/>
</svg>
