<?xml version="1.0" standalone="no"?>
<!DOCTYPE svg PUBLIC "-//W3C//DTD SVG 20010904//EN"
 "http://www.w3.org/TR/2001/REC-SVG-20010904/DTD/svg10.dtd">
<svg version="1.0" xmlns="http://www.w3.org/2000/svg"
 width="565.000000pt" height="512.000000pt" viewBox="0 0 565.000000 512.000000"
 preserveAspectRatio="xMidYMid meet">

<g transform="translate(0.000000,512.000000) scale(0.100000,-0.100000)"
fill="#fff" stroke="none">
<path d="M3918 3815 c-43 -55 -43 -55 -48 -28 -4 21 -13 29 -35 34 -54 12
-104 10 -112 -5 -9 -15 -133 -29 -133 -15 0 5 -12 14 -26 20 -20 7 -32 6 -48
-4 -12 -8 -42 -18 -66 -22 -55 -9 -90 -30 -90 -54 0 -34 23 -42 102 -35 l73 6
10 -33 c9 -30 15 -34 48 -37 25 -2 37 -8 37 -19 0 -27 42 -91 67 -102 25 -12
83 5 97 28 4 6 19 11 34 11 23 0 20 -5 -28 -32 -30 -17 -72 -41 -93 -55 l-37
-23 20 -40 c11 -22 18 -40 15 -40 -3 0 -33 29 -68 63 -47 48 -77 69 -121 86
-88 33 -194 43 -309 31 -142 -16 -252 -51 -416 -132 -120 -59 -155 -81 -206
-132 -34 -34 -70 -81 -81 -104 -19 -42 -28 -50 -38 -33 -4 5 -114 7 -264 4
l-257 -6 -255 44 c-249 43 -261 44 -475 44 -156 0 -231 -4 -257 -13 -61 -22
-156 -141 -143 -181 4 -14 -3 -20 -37 -30 -184 -54 -361 -224 -449 -431 -28
-66 -74 -238 -66 -246 2 -2 71 47 153 109 97 74 159 129 178 158 125 187 352
299 580 286 92 -5 256 -48 256 -67 0 -5 -6 -24 -14 -42 -8 -18 -17 -44 -20
-58 -12 -54 -17 -56 -108 -25 -74 25 -97 28 -218 28 -125 0 -142 -2 -223 -30
-121 -42 -189 -85 -283 -178 -144 -142 -206 -291 -207 -495 -1 -136 16 -207
76 -330 54 -111 185 -247 292 -302 126 -65 202 -83 350 -82 113 0 141 4 210
27 235 78 399 249 479 500 3 10 15 17 31 17 14 0 52 9 84 20 72 24 96 19 241
-57 76 -39 123 -57 170 -64 80 -11 991 -25 1042 -15 51 9 152 79 198 137 62
79 220 475 220 553 0 25 -10 71 -21 102 -25 65 -31 29 58 312 43 137 47 144
85 169 l40 27 18 -23 c19 -26 37 -26 101 2 l35 16 73 -162 c90 -198 87 -192
73 -183 -18 11 -120 -64 -194 -142 -47 -51 -80 -98 -112 -164 -68 -138 -87
-222 -93 -413 -4 -162 11 -311 32 -309 6 0 21 22 34 47 l23 47 40 -77 c100
-195 269 -334 485 -395 108 -31 276 -31 386 0 376 106 617 468 557 839 -33
210 -154 404 -319 516 l-48 32 77 -4 c43 -1 86 1 96 7 15 8 12 13 -26 37 -50
32 -161 79 -236 101 -138 40 -327 35 -477 -13 -99 -31 -137 -49 -137 -67 0
-12 -48 -41 -56 -33 -15 15 -165 342 -158 344 5 2 24 12 42 23 l34 21 -25 42
c-46 78 -77 140 -77 153 0 8 24 30 54 50 52 34 68 57 82 116 8 37 -17 48 -110
48 -42 0 -76 3 -76 6 0 3 32 46 70 96 80 104 81 96 -13 165 -28 20 -46 41 -43
49 3 7 -10 24 -29 38 l-34 26 -43 -55z m-219 -899 c-23 -20 -164 -116 -171
-116 -24 0 18 39 84 77 60 35 105 55 87 39z m-9 -172 c-23 -60 -28 -64 -80
-64 -27 0 -51 4 -54 8 -4 7 119 81 136 82 4 0 3 -12 -2 -26z m-2062 -43 c20
-16 46 -32 57 -35 28 -8 68 15 75 44 l6 24 40 -37 c33 -29 61 -78 144 -254 57
-120 143 -298 192 -395 48 -98 86 -178 83 -178 -3 0 -49 22 -103 49 -53 26
-124 56 -157 65 -53 15 -120 42 -165 65 -9 5 -18 31 -22 67 -18 140 -90 285
-203 403 l-73 76 34 68 c19 37 39 67 45 67 5 0 27 -13 47 -29z m1237 -140 c25
-5 34 -15 53 -65 13 -32 21 -60 19 -63 -3 -2 -60 1 -126 8 -141 14 -171 8
-251 -47 l-52 -36 7 84 c4 45 9 86 11 90 3 4 14 -2 24 -12 29 -29 75 -25 118
9 20 16 46 31 57 34 29 7 105 6 140 -2z m744 -67 c2 -2 -4 -42 -13 -88 -10
-46 -15 -93 -12 -103 4 -11 0 -36 -8 -55 -13 -30 -23 -37 -61 -47 -42 -11 -50
-10 -82 10 l-35 22 4 114 c3 113 4 115 32 140 27 23 34 24 100 18 39 -4 73 -9
75 -11z m943 -51 l1 -38 4 38 c4 33 7 37 34 37 l29 0 0 -106 0 -105 -27 3
c-22 2 -29 9 -31 31 -2 15 -7 25 -10 23 -4 -2 -24 27 -43 65 l-36 69 31 9 c17
5 34 10 39 10 4 1 8 -16 9 -36z m191 20 c6 -4 17 -8 22 -8 30 -1 86 -28 81
-40 -3 -8 2 -11 13 -8 10 2 36 -12 64 -37 37 -32 45 -45 37 -55 -9 -10 -7 -12
7 -9 25 6 88 -93 71 -113 -9 -11 -8 -13 2 -11 21 5 39 -58 39 -139 l1 -73 -47
-2 -48 -2 48 -3 c26 -2 47 -9 47 -15 0 -7 -7 -38 -17 -71 -13 -49 -19 -58 -35
-54 -15 4 -17 3 -8 -8 17 -20 -18 -78 -43 -71 -14 3 -16 1 -8 -8 13 -16 1 -34
-53 -75 -21 -17 -43 -28 -49 -24 -5 3 -7 2 -4 -4 8 -13 -38 -37 -54 -28 -7 5
-10 4 -5 -3 9 -14 -73 -39 -156 -48 l-68 -6 -2 48 -1 49 -4 -42 c-3 -32 -8
-43 -21 -43 -56 0 -206 66 -198 86 3 8 0 11 -9 8 -22 -9 -110 90 -145 163 -22
45 -29 68 -21 71 9 3 8 7 -3 16 -8 6 -17 35 -21 64 -6 46 -5 52 12 53 17 1 17
2 0 6 -16 4 -17 11 -12 46 4 23 11 47 16 53 5 6 6 14 3 17 -14 13 68 156 112
197 42 39 72 46 60 13 -3 -8 -1 -11 4 -8 11 7 60 -87 67 -127 4 -29 -33 -92
-48 -82 -5 3 -6 -3 -2 -12 4 -11 -1 -22 -12 -30 -10 -8 -15 -14 -9 -14 5 0 9
-33 10 -72 1 -93 4 -106 32 -136 25 -28 27 -42 10 -62 -11 -12 -10 -12 4 -1
19 14 42 6 32 -11 -4 -7 -2 -8 4 -4 10 6 54 -15 72 -34 13 -13 135 -18 169 -7
14 4 29 3 37 -4 11 -9 13 -9 9 2 -8 20 33 43 50 29 11 -9 12 -7 8 9 -5 20 27
47 42 33 5 -4 5 -2 2 5 -9 14 24 73 40 73 7 0 10 7 7 15 -4 8 -3 23 1 33 4 9
8 33 9 52 1 33 3 35 41 39 l40 5 -45 5 c-39 5 -45 9 -44 29 0 12 -3 22 -8 22
-4 0 -8 6 -8 13 0 7 -13 28 -30 47 -16 19 -29 40 -30 45 0 6 -19 19 -41 30
-23 10 -45 28 -49 40 -5 11 -9 14 -9 8 -1 -14 -29 -17 -55 -7 -13 5 -16 24
-16 106 l0 101 50 -6 c28 -3 56 -10 63 -14z m-3673 -97 l0 -94 -52 -12 c-69
-17 -134 -62 -167 -116 -18 -31 -33 -43 -49 -44 -13 0 -32 -9 -44 -20 -16 -15
-36 -20 -75 -20 -32 0 -53 4 -53 11 0 18 32 123 40 132 4 5 18 4 31 -2 l24
-12 -22 17 c-13 9 -23 20 -23 25 0 4 23 36 51 70 l52 62 19 -24 19 -24 -12 24
c-10 22 -9 27 17 48 16 13 34 21 39 20 6 -2 15 2 20 9 12 16 94 39 146 43 l39
2 0 -95z m111 78 c5 -3 7 -17 4 -32 l-5 -27 11 28 c13 33 15 33 59 5 28 -18
31 -23 17 -26 -11 -2 -16 -9 -13 -18 3 -8 -1 -14 -9 -14 -14 0 -29 -35 -24
-56 1 -5 -4 -21 -11 -36 -13 -27 -38 -36 -54 -20 -8 8 -14 9 -51 11 -25 1 -25
1 -25 102 l0 102 46 -7 c25 -3 50 -8 55 -12z m263 -197 c24 -39 27 -49 16 -62
-11 -13 -10 -14 3 -9 18 7 29 -15 41 -78 l7 -37 -88 5 c-117 7 -124 10 -93 35
23 19 23 19 2 9 -30 -14 -45 -5 -32 20 8 16 7 18 -4 14 -8 -3 -21 4 -29 16
-13 19 -12 23 18 55 17 19 35 35 39 35 5 0 22 11 38 25 17 14 36 24 42 22 6
-2 24 -25 40 -50z m-722 -310 c7 -7 25 -18 41 -24 15 -7 27 -16 27 -21 0 -5
13 -7 30 -4 24 3 32 0 42 -22 11 -25 8 -30 -47 -86 l-59 -60 -24 23 c-28 26
-54 72 -45 81 4 3 2 6 -4 6 -14 0 -37 56 -28 69 3 6 2 11 -3 11 -5 0 -12 9
-15 20 -4 17 0 20 33 20 21 0 45 -6 52 -13z m686 -82 c56 -30 56 -30 36 -64
-14 -23 -24 -31 -38 -27 -14 4 -16 2 -7 -7 8 -8 1 -22 -31 -54 -23 -24 -46
-43 -51 -43 -5 0 -16 -7 -24 -16 -9 -8 -24 -13 -34 -11 -10 3 -17 0 -16 -6 1
-7 -27 -19 -63 -28 -64 -16 -65 -16 -72 5 -6 21 -6 21 -7 -1 -1 -15 -7 -23
-18 -23 -31 0 -142 20 -168 30 -23 9 -24 13 -15 32 10 21 10 21 -3 6 -19 -24
-33 -23 -63 7 -13 13 -28 25 -32 26 -4 1 -16 8 -27 15 -19 13 -17 17 45 79 35
35 67 62 72 59 5 -3 5 -10 2 -16 -4 -6 -3 -8 3 -5 5 3 24 -3 42 -14 28 -17 30
-22 21 -42 l-11 -22 16 22 c14 18 21 20 48 12 18 -5 44 -9 59 -9 14 0 29 -6
31 -12 4 -9 6 -7 6 3 1 14 76 53 91 47 8 -3 60 52 60 62 0 16 118 12 148 -5z"/>
<path d="M4208 1903 c7 -3 16 -2 19 1 4 3 -2 6 -13 5 -11 0 -14 -3 -6 -6z"/>
</g>
</svg>
