<svg width="133" height="45" viewBox="0 0 133 45" fill="none" xmlns="http://www.w3.org/2000/svg">
<g clip-path="url(#clip0)">
<path d="M1.28534 30.3442C2.11615 35.6822 3.43795 42.1035 8.38514 44.5792C9.2915 45.0432 12.9924 44.9659 20.3566 44.7725C20.9608 44.7725 22.0938 44.6952 22.8113 43.8831C23.34 43.3027 23.5666 42.3745 23.4156 41.214C23.3778 40.827 23.34 40.4402 23.2267 40.0922C23.1134 39.7828 23.1134 39.5891 23.2267 39.4731C23.34 39.3184 23.5666 39.3184 23.9065 39.3184C24.5107 39.3184 24.9639 39.3184 25.3038 39.3184C26.2101 39.4344 26.9654 38.6997 26.9654 38.0419C26.9654 37.3458 26.2101 36.6107 25.266 36.7654C21.1874 36.7654 17.1088 36.7654 13.0302 36.7654C12.0861 36.8814 11.3686 36.1079 11.4063 35.4502C11.4441 34.8314 12.1616 34.1736 13.0302 34.2897C19.488 34.2897 25.9835 34.2897 32.4415 34.251C33.0834 34.1736 33.5742 33.6322 33.5742 33.0131C33.5742 32.3557 33.0455 31.737 32.3659 31.737C27.5697 31.737 22.8113 31.737 18.0152 31.737C16.9955 31.853 16.2402 31.0405 16.278 30.3829C16.3158 29.764 17.0711 29.0678 18.0152 29.2225C19.6013 29.2225 21.1874 29.2225 22.8113 29.2225C23.8309 29.3385 24.5863 28.5649 24.5863 27.9073C24.5863 27.2497 23.7932 26.476 22.7358 26.6694C18.8082 26.6694 14.8429 26.6694 10.9154 26.6308C10.2356 26.6694 9.63139 26.0892 9.63139 25.3929C9.63139 24.6967 10.1978 24.1164 10.9154 24.1551C14.9562 24.1551 18.9593 24.1551 23.0001 24.1164C23.7932 24.2325 24.473 23.6135 24.473 22.9173C24.5107 22.1823 23.831 21.5247 23.0757 21.6021C18.4306 21.6021 13.7855 21.6021 9.14044 21.6021C8.30959 21.7181 7.59209 21.0606 7.59209 20.3256C7.59209 19.6293 8.30959 18.933 9.14044 19.0491C15.9004 19.0491 22.6225 19.0491 29.3824 19.0491C30.402 19.1651 31.1573 18.3915 31.1195 17.6952C31.0818 17.0376 30.3643 16.3414 29.3824 16.4574C24.8884 16.5348 21.5273 16.5348 20.3188 16.4961C19.9789 16.4961 19.2614 16.4574 18.9215 15.9932C18.8082 15.7998 18.8082 15.6451 18.7327 15.0261C18.695 14.8327 18.6194 14.2139 18.5061 13.7497C18.2796 12.976 17.9019 12.3958 17.3732 12.0476C16.8067 11.6608 16.1647 11.6221 15.8626 11.6221C8.64952 11.5835 5.0241 11.5448 3.40019 12.7826C-0.904994 16.2253 0.341214 24.2711 1.28534 30.3442Z" fill="#01A0E2"/>
<path d="M35.8025 31.737C35.0849 31.6979 34.5186 32.2784 34.4806 32.9745C34.4806 33.6709 35.0093 34.251 35.6893 34.251C36.3688 34.251 36.9356 33.7096 36.9356 33.0131C36.9732 32.3557 36.4444 31.7756 35.8025 31.737Z" fill="#01A0E2"/>
<path d="M32.0259 17.8886C32.0636 18.5849 32.6303 19.1264 33.3098 19.0877C33.9898 19.0491 34.4806 18.4688 34.4806 17.8112C34.4429 17.115 33.9142 16.5734 33.2346 16.5734C32.5171 16.6121 31.9883 17.1923 32.0259 17.8886Z" fill="#01A0E2"/>
<path d="M4.45766 9.33989C6.91881 9.33989 8.91393 7.29626 8.91393 4.77538C8.91393 2.2545 6.91881 0.210938 4.45766 0.210938C1.99655 0.210938 0.00146484 2.2545 0.00146484 4.77538C0.00146484 7.29626 1.99655 9.33989 4.45766 9.33989Z" fill="#01A0E2"/>
<path d="M45.2813 20.3395H41.4296V1.11723H45.2813V20.3395Z" fill="#01A0E2"/>
<path d="M52.117 20.3395H48.4537V5.98891H49.3221L50.5308 7.38626C51.1351 6.85755 51.7771 6.44211 52.5322 6.13997C53.2877 5.83788 54.0429 5.68684 54.8736 5.68684C55.7423 5.68684 56.5731 5.83788 57.3662 6.17773C58.1593 6.51762 58.8389 6.97082 59.4056 7.57509C59.972 8.17932 60.4628 8.85903 60.7651 9.61433C61.0671 10.3696 61.2559 11.2383 61.2559 12.1068V20.3018H57.5926V12.1068C57.5926 11.7292 57.517 11.3893 57.3662 11.0494C57.215 10.7095 57.0262 10.4074 56.7619 10.1808C56.4975 9.91646 56.2331 9.72763 55.8935 9.57657C55.5535 9.42554 55.2136 9.34999 54.836 9.34999C54.4584 9.34999 54.0805 9.42554 53.7409 9.57657C53.4009 9.72763 53.0986 9.91646 52.8722 10.1808C52.6078 10.4452 52.419 10.7095 52.2678 11.0494C52.1167 11.3893 52.0414 11.7292 52.0414 12.1068V20.3395H52.117Z" fill="#01A0E2"/>
<path d="M71.7923 20.3395H63.4086V16.6764H71.7923C72.0567 16.6764 72.2454 16.6008 72.4342 16.412C72.623 16.2232 72.6986 16.0344 72.6986 15.77C72.6986 15.5057 72.623 15.3546 72.4342 15.279C72.2454 15.2035 72.0567 15.1658 71.7923 15.1658H67.9782C67.3362 15.1658 66.7319 15.0525 66.2031 14.7881C65.6368 14.5615 65.1836 14.2217 64.7681 13.8062C64.3529 13.3908 64.0505 12.8999 63.7861 12.3334C63.5597 11.7669 63.4462 11.2005 63.4462 10.5584C63.4462 9.91645 63.5597 9.31222 63.7861 8.7835C64.0129 8.21703 64.3529 7.76383 64.7681 7.34843C65.1836 6.93302 65.6744 6.63092 66.2031 6.36655C66.7319 6.10221 67.3362 6.02666 67.9782 6.02666H75.38V9.68987H67.9782C67.7138 9.68987 67.525 9.76538 67.3362 9.95421C67.1474 10.143 67.0719 10.3319 67.0719 10.5963C67.0719 10.8606 67.1474 11.0872 67.3362 11.276C67.525 11.4648 67.7138 11.5404 67.9782 11.5404H71.7923C72.4342 11.5404 73.001 11.6536 73.5673 11.8425C74.1337 12.069 74.5869 12.3334 75.0024 12.7111C75.4179 13.0887 75.7576 13.5419 75.9843 14.0706C76.2107 14.5993 76.3619 15.1658 76.3619 15.8078C76.3619 16.4498 76.2487 17.0163 75.9843 17.5827C75.7199 18.1492 75.4179 18.6024 75.0024 19.0178C74.5869 19.4332 74.0961 19.7731 73.5673 19.9996C73.001 20.2262 72.3966 20.3395 71.7923 20.3395Z" fill="#01A0E2"/>
<path d="M85.5011 20.4151C84.6324 20.4151 83.8016 20.1885 83.0085 19.8486C82.2154 19.5088 81.5358 19.0555 80.9691 18.4513C80.4027 17.8471 79.9119 17.1673 79.572 16.412C79.232 15.6567 79.0808 14.7881 79.0808 13.9195V9.65215H77.3062V5.9889H79.0808V0.286453H82.7441V6.02666H88.2956V9.68991H82.7441V13.9573C82.7441 14.3349 82.8197 14.7126 82.9709 15.0525C83.1217 15.3924 83.3105 15.6945 83.5749 15.9211C83.8392 16.1854 84.1036 16.3743 84.4436 16.5253C84.7835 16.6764 85.1611 16.7519 85.5387 16.7519H88.3333V20.4151H85.5011Z" fill="#01A0E2"/>
<path d="M104.232 20.3395H103.364L101.929 18.3758C101.589 18.6779 101.211 18.98 100.833 19.2444C100.456 19.5087 100.04 19.7353 99.6251 19.9619C99.2096 20.1507 98.7564 20.3396 98.3032 20.4529C97.8501 20.5662 97.3969 20.6417 96.9437 20.6417C95.9242 20.6417 94.9799 20.4529 94.1112 20.1507C93.2428 19.8486 92.4497 19.3199 91.7702 18.6779C91.0902 18.0359 90.5615 17.2428 90.1839 16.2987C89.8063 15.3546 89.6172 14.2972 89.6172 13.0887C89.6172 11.9558 89.8063 10.9361 90.1839 9.99197C90.5615 9.04785 91.0902 8.25483 91.7702 7.57508C92.4497 6.8953 93.2049 6.36655 94.1112 6.02666C95.0179 5.64901 95.9618 5.46019 96.9437 5.46019C97.3969 5.46019 97.8877 5.53574 98.3409 5.64901C98.7944 5.76232 99.2475 5.91339 99.6627 6.13997C100.078 6.3288 100.493 6.59317 100.871 6.85754C101.249 7.12188 101.627 7.42402 101.967 7.76391L103.402 6.06449H104.27V20.3395H104.232ZM100.531 13.051C100.531 12.56 100.418 12.0691 100.229 11.5781C100.04 11.125 99.7759 10.7095 99.4363 10.3319C99.0964 9.95421 98.7188 9.68991 98.2656 9.46333C97.8125 9.23671 97.3593 9.1234 96.8682 9.1234C96.3774 9.1234 95.8863 9.19892 95.4711 9.38774C95.0179 9.57656 94.64 9.80318 94.3003 10.143C93.9604 10.4829 93.7336 10.8984 93.5448 11.3893C93.3561 11.8802 93.2805 12.4467 93.2805 13.051C93.2805 13.6552 93.3561 14.2217 93.5448 14.7126C93.7336 15.2035 93.998 15.619 94.3003 15.9211C94.64 16.261 95.0179 16.4875 95.4711 16.6764C95.9242 16.8652 96.3774 16.9407 96.8682 16.9407C97.3593 16.9407 97.8501 16.8274 98.2656 16.6008C98.7188 16.3742 99.0964 16.1099 99.4363 15.7322C99.7759 15.3546 100.04 14.9392 100.229 14.486C100.456 14.0328 100.531 13.5419 100.531 13.051Z" fill="#2999C9"/>
<path d="M110.69 20.3395H107.027V5.98891H107.896L109.104 7.38626C109.708 6.85755 110.35 6.44211 111.105 6.13997C111.861 5.83788 112.616 5.68684 113.447 5.68684C114.315 5.68684 115.146 5.83788 115.939 6.17773C116.732 6.51762 117.412 6.97082 117.979 7.57509C118.545 8.17932 119.036 8.85903 119.338 9.61433C119.64 10.3696 119.829 11.2383 119.829 12.1068V20.3018H116.166V12.1068C116.166 11.7292 116.09 11.3893 115.939 11.0494C115.788 10.7095 115.599 10.4074 115.335 10.1808C115.071 9.95422 114.807 9.72763 114.467 9.57657C114.127 9.42554 113.787 9.34999 113.409 9.34999C113.032 9.34999 112.654 9.42554 112.314 9.57657C111.974 9.72763 111.672 9.91646 111.445 10.1808C111.219 10.4452 110.992 10.7095 110.841 11.0494C110.69 11.3893 110.615 11.7292 110.615 12.1068V20.3395H110.69Z" fill="#2999C9"/>
<path d="M129.459 20.4151C128.591 20.4151 127.76 20.1885 126.967 19.8486C126.174 19.5088 125.494 19.0555 124.927 18.4513C124.323 17.8471 123.87 17.1673 123.53 16.412C123.19 15.6189 123.039 14.7881 123.039 13.9195V9.65215H121.264V5.9889H123.039V0.286453H126.702V6.02666H132.254V9.68991H126.702V13.9573C126.702 14.3349 126.778 14.7126 126.929 15.0525C127.08 15.3924 127.269 15.6945 127.533 15.9211C127.798 16.1854 128.062 16.3743 128.402 16.5253C128.742 16.6764 129.119 16.7519 129.497 16.7519H132.292V20.4151H129.459Z" fill="#2999C9"/>
<path d="M56.8375 38.9577C56.8375 39.7508 56.6863 40.506 56.3843 41.1859C56.0823 41.8655 55.6668 42.5074 55.138 42.9986C54.6093 43.5273 54.005 43.9425 53.3254 44.2448C52.6455 44.5468 51.8903 44.698 51.0972 44.698H41.4296V25.4756H51.0596C51.8527 25.4756 52.6079 25.6267 53.2878 25.9288C53.9673 26.2309 54.6093 26.6463 55.1004 27.175C55.6288 27.7037 56.0444 28.308 56.3467 28.9877C56.6487 29.6675 56.7995 30.4228 56.7995 31.2158C56.7995 31.5557 56.7619 31.9335 56.6487 32.3111C56.5355 32.6886 56.422 33.0662 56.2332 33.4062C56.0444 33.7461 55.8556 34.0861 55.5912 34.3501C55.3268 34.6525 55.0625 34.8789 54.7605 35.0677C55.0625 35.2568 55.3648 35.4832 55.5912 35.7476C55.8556 36.0496 56.0444 36.3519 56.2332 36.6919C56.422 37.0315 56.5355 37.4094 56.6487 37.787C56.7619 38.2022 56.8375 38.5801 56.8375 38.9577ZM45.2813 33.1798H51.0596C51.3239 33.1798 51.5883 33.1418 51.8147 33.0286C52.0415 32.9154 52.2679 32.8018 52.4191 32.613C52.6078 32.4243 52.7211 32.2355 52.8343 32.0091C52.9478 31.7823 52.9854 31.5179 52.9854 31.2536C52.9854 30.9893 52.9478 30.7249 52.8343 30.4983C52.7211 30.2717 52.6078 30.0451 52.4191 29.8941C52.2303 29.7052 52.0415 29.592 51.8147 29.4787C51.5883 29.3654 51.3239 29.3276 51.0596 29.3276H45.2813V33.1798ZM45.2813 40.8459H51.0596C51.3239 40.8459 51.5883 40.808 51.8147 40.6948C52.0415 40.5816 52.2679 40.4684 52.4191 40.2796C52.6078 40.0904 52.7211 39.9016 52.8343 39.6752C52.9478 39.4485 52.9854 39.1841 52.9854 38.9197C52.9854 38.6554 52.9478 38.3913 52.8343 38.1646C52.7211 37.9378 52.6078 37.7114 52.4191 37.5602C52.2303 37.3714 52.0415 37.2582 51.8147 37.145C51.5883 37.0315 51.3239 36.9939 51.0596 36.9939H45.2813V40.8459Z" fill="#01A0E2"/>
<path d="M65.0704 41.1859C65.2212 41.2235 65.3724 41.2611 65.4856 41.2611C65.6368 41.2611 65.7879 41.2991 65.9011 41.2991C66.2411 41.2991 66.6187 41.2611 66.9207 41.1479C67.2606 41.0347 67.5626 40.9215 67.865 40.7324C68.167 40.5436 68.4313 40.3172 68.6578 40.0528C68.8845 39.7884 69.0733 39.4865 69.2245 39.1841L71.9055 41.8655C71.5659 42.3566 71.1883 42.7718 70.7351 43.1494C70.2816 43.5273 69.8288 43.8669 69.3001 44.1313C68.7713 44.3957 68.2426 44.5845 67.6762 44.7356C67.1095 44.8868 66.5431 44.9244 65.9388 44.9244C64.9192 44.9244 63.9749 44.7356 63.1066 44.3581C62.2002 43.9805 61.4447 43.4517 60.7652 42.7718C60.0852 42.0922 59.5565 41.2991 59.1789 40.3928C58.8013 39.4485 58.6125 38.4666 58.6125 37.3338C58.6125 36.2007 58.8013 35.1432 59.1789 34.2369C59.5565 33.293 60.0852 32.4999 60.7652 31.8199C61.4447 31.1403 62.2002 30.6494 63.1066 30.2717C64.0129 29.8941 64.9569 29.7052 65.9388 29.7052C66.5431 29.7052 67.1095 29.7808 67.7138 29.9318C68.2802 30.0829 68.8469 30.2717 69.3377 30.5361C69.8664 30.8004 70.3196 31.1403 70.7728 31.5179C71.2259 31.8955 71.6035 32.3487 71.9435 32.8398L65.0704 41.1859ZM66.9207 33.6329C66.7319 33.5574 66.5807 33.5194 66.4299 33.5194C66.2787 33.5194 66.0899 33.4818 65.9011 33.4818C65.41 33.4818 64.9192 33.5573 64.5037 33.7461C64.0505 33.9349 63.6729 34.1993 63.333 34.5393C62.993 34.8789 62.7666 35.2944 62.5778 35.7476C62.389 36.2387 62.3134 36.7671 62.3134 37.3715C62.3134 37.5226 62.3135 37.6738 62.3511 37.8246C62.3511 37.9758 62.389 38.1646 62.4267 38.3534C62.4646 38.5422 62.5022 38.6933 62.5399 38.8441C62.5778 38.9953 62.6534 39.1465 62.729 39.2597L66.9207 33.6329Z" fill="#01A0E2"/>
<path d="M79.3452 41.1859C79.4963 41.2235 79.6475 41.2611 79.7607 41.2611C79.9119 41.2611 80.0627 41.2991 80.1759 41.2991C80.5159 41.2991 80.8935 41.2611 81.1958 41.1479C81.5358 41.0347 81.8378 40.9215 82.1397 40.7324C82.4421 40.5436 82.7065 40.3172 82.9329 40.0528C83.1596 39.7884 83.3484 39.4865 83.4992 39.1841L86.1806 41.8655C85.8406 42.3566 85.4631 42.7718 85.0099 43.1494C84.5567 43.5273 84.1036 43.8669 83.5748 44.1313C83.0461 44.3957 82.5177 44.5845 81.951 44.7356C81.3846 44.8868 80.8182 44.9244 80.2139 44.9244C79.194 44.9244 78.2501 44.7356 77.3813 44.3581C76.513 43.9805 75.7199 43.4517 75.0399 42.7718C74.3604 42.0922 73.8316 41.2991 73.454 40.3928C73.0765 39.4865 72.8873 38.4666 72.8873 37.3338C72.8873 36.2007 73.0765 35.1432 73.454 34.2369C73.8316 33.293 74.3604 32.4999 75.0399 31.8199C75.7199 31.1403 76.475 30.6494 77.3813 30.2717C78.2877 29.8941 79.232 29.7052 80.2139 29.7052C80.8182 29.7052 81.3846 29.7808 81.9889 29.9318C82.5553 30.0829 83.1217 30.2717 83.6128 30.5361C84.1036 30.8004 84.5947 31.1403 85.0479 31.5179C85.501 31.8955 85.8786 32.3487 86.2186 32.8398L79.3452 41.1859ZM81.2334 33.6329C81.0446 33.5574 80.8935 33.5194 80.7426 33.5194C80.5915 33.5194 80.4027 33.4818 80.2139 33.4818C79.7228 33.4818 79.232 33.5573 78.8164 33.7461C78.3633 33.9349 77.9857 34.1993 77.6457 34.5393C77.3061 34.8789 77.0794 35.2944 76.8906 35.7476C76.7018 36.2387 76.6262 36.7671 76.6262 37.3715C76.6262 37.5226 76.6262 37.6738 76.6638 37.8246C76.6638 37.9758 76.7018 38.1646 76.7394 38.3534C76.7774 38.5422 76.815 38.6933 76.853 38.8441C76.8906 38.9953 76.9662 39.1465 77.0417 39.2597L81.2334 33.6329Z" fill="#01A0E2"/>
<path d="M106.347 44.698H102.684V35.5964C102.684 35.332 102.646 35.1056 102.533 34.8789C102.42 34.6525 102.306 34.4637 102.155 34.2749C101.966 34.1237 101.778 33.9725 101.551 33.8973C101.325 33.8217 101.098 33.7461 100.833 33.7461C100.569 33.7461 100.343 33.7837 100.116 33.8973C99.8895 33.9725 99.7007 34.1237 99.5495 34.2749C99.3983 34.4637 99.2475 34.6525 99.1719 34.8789C99.0963 35.1056 99.0207 35.332 99.0207 35.5964V44.698H95.3575V35.5964C95.3575 35.332 95.3198 35.1056 95.2066 34.8789C95.0931 34.6525 94.9799 34.4637 94.8287 34.2749C94.6779 34.1237 94.4511 33.9725 94.2247 33.8973C93.998 33.8217 93.7716 33.7461 93.5072 33.7461C93.2428 33.7461 93.0161 33.7837 92.7897 33.8973C92.5629 33.9725 92.3741 34.1237 92.2229 34.2749C92.0721 34.4637 91.9209 34.6525 91.8454 34.8789C91.7698 35.1056 91.6945 35.332 91.6945 35.5964V44.698H88.0312V30.3472H88.8996L89.8819 31.4424C90.3727 31.027 90.939 30.6871 91.581 30.4605C92.1853 30.234 92.8273 30.1206 93.5072 30.1206C94.1868 30.1206 94.8287 30.234 95.471 30.4983C96.113 30.7627 96.6793 31.1781 97.1701 31.7823C97.3969 31.4802 97.6613 31.2158 97.9256 30.9892C98.2276 30.7627 98.53 30.6116 98.832 30.4605C99.134 30.3095 99.4739 30.2339 99.8139 30.1584C100.154 30.0829 100.494 30.0829 100.833 30.0829C101.589 30.0829 102.306 30.234 102.986 30.4983C103.666 30.7627 104.232 31.178 104.723 31.6691C105.214 32.1599 105.592 32.7642 105.894 33.4062C106.196 34.0861 106.309 34.8036 106.309 35.5588V44.698H106.347Z" fill="#2999C9"/>
<path d="M122.926 44.698H122.057L120.622 42.7342C120.282 43.0362 119.905 43.3382 119.527 43.6025C119.149 43.8669 118.734 44.0937 118.319 44.3201C117.903 44.5089 117.45 44.698 116.997 44.8112C116.544 44.9244 116.091 45 115.637 45C114.618 45 113.674 44.8112 112.805 44.5089C111.936 44.2069 111.143 43.6781 110.463 43.0362C109.784 42.3942 109.255 41.6011 108.878 40.6572C108.5 39.7129 108.311 38.6554 108.311 37.447C108.311 36.3139 108.5 35.2944 108.878 34.3505C109.255 33.4062 109.784 32.613 110.463 31.9335C111.143 31.2536 111.898 30.7249 112.805 30.385C113.711 30.0073 114.655 29.8185 115.637 29.8185C116.091 29.8185 116.581 29.894 117.034 30.0073C117.488 30.1206 117.941 30.2717 118.356 30.4983C118.772 30.6871 119.187 30.9515 119.603 31.2158C119.98 31.4802 120.358 31.7823 120.698 32.1223L122.133 30.4228H123.002V44.698H122.926ZM119.225 37.4094C119.225 36.9183 119.111 36.4275 118.923 35.9364C118.734 35.4832 118.47 35.068 118.13 34.6901C117.79 34.3125 117.412 34.0481 116.959 33.8217C116.506 33.595 116.053 33.4818 115.562 33.4818C115.071 33.4818 114.58 33.5573 114.164 33.7461C113.711 33.9349 113.334 34.1613 112.994 34.5013C112.654 34.8413 112.427 35.2568 112.238 35.7476C112.05 36.2387 111.974 36.8051 111.974 37.4094C111.974 38.0134 112.05 38.5801 112.238 39.0709C112.427 39.5617 112.692 39.9772 112.994 40.2796C113.296 40.5816 113.711 40.8459 114.164 41.0347C114.617 41.2235 115.071 41.2991 115.562 41.2991C116.053 41.2991 116.544 41.1859 116.959 40.9591C117.412 40.7324 117.79 40.4684 118.13 40.0904C118.47 39.7129 118.734 39.2977 118.923 38.8445C119.111 38.391 119.225 37.9002 119.225 37.4094Z" fill="#2999C9"/>
</g>
<defs>
<clipPath id="clip0">
<rect width="132.539" height="45" fill="white"/>
</clipPath>
</defs>
</svg>
