<svg xmlns="http://www.w3.org/2000/svg" width="48" height="48" fill="#0065ff"><path d="M37.298 28.3a3.68 3.68 0 11-3.681 3.681 3.685 3.685 0 013.68-3.68zm0 5.883a2.2 2.2 0 002.271-2.2 2.14 2.14 0 00-2.271-2.183 2.24 2.24 0 00-2.317 2.183 2.313 2.313 0 002.317 2.2zM7.566 24.326h.566v-6.23a5.11 5.11 0 014.26-5.03.57.57 0 01.27-.07h18.122a.54.54 0 01.057 0c3.613.366 5.844 6.57 6.6 9.058h.7a.57.57 0 01.566.566v2.265a.57.57 0 01-.566.566h-1.7v.35a5.35 5.35 0 01.566-.028 5.903 5.903 0 013.82 1.57.66.66 0 010 .873.57.57 0 01-.8.087 4.524 4.524 0 00-3.02-1.154 4.31 4.31 0 00-4.3 4.493c-.02.6-.487.6-.8.6h-14.77a3.96 3.96 0 01-7.838 0h-.6a.566.566 0 01-.566-.566v-3.964h-.568a.57.57 0 01-.566-.558V24.89a.57.57 0 01.565-.566zm23.2-9.828H13.23a3.45 3.45 0 00-3.7 3.6v5.663h7.66l-.007-7.35a.57.57 0 01.566-.566h13.42l.744-1.07a2.026 2.026 0 00-1.158-.276zM18.7 17.3l.007 6.806 1.9 2.074c.106.106.166.25.166.4v2.1h3.535L24.3 17.3zm6.98-.025l.007 4.55h6.317l-1.55-4.5zm7.34-1.443l-1.1 1.443 1.424 4.55 2.2-1.2a13.96 13.96 0 00-2.523-4.793zM13.267 34.188a2.08 2.08 0 002.287-1.933H10.88a2.17 2.17 0 002.386 1.933zM8.4 26.592h.566a.57.57 0 01.566.566v3.7l21.88.01a5.39 5.39 0 013.675-4.817V24.67a.566.566 0 01.566-.566l1.784-.01v-.875H36.7a.569.569 0 01-.544-.4c-.1-.354-.16-.4-.277-.746l-2.54 1.27a.57.57 0 01-.253.059h-7.36l-.038 6.033a.57.57 0 01-.566.566l-5.34.046a.57.57 0 01-.566-.566v-2.6l-1.935-1.7-7.747-.046a.57.57 0 01-.566.566H8.4v.906z"/></svg>