<svg xmlns="http://www.w3.org/2000/svg" width="48" height="48"><path d="M38.914 22.996l-2.18-.943-1.85-3.6a2.914 2.914 0 00-2.622-1.593h-3.187v-.9a2.94 2.94 0 00-2.929-2.964H10.915A2.93 2.93 0 008 15.958v13.788a1.8 1.8 0 001.772 1.822h.408l-.007.143a3.7 3.7 0 107.4.029v-.036a1.11 1.11 0 00-.007-.143h12.3v.143a3.7 3.7 0 107.4.029v-.18h.924a1.8 1.8 0 001.8-1.8v-5.1a1.79 1.79 0 00-1.086-1.658zM13.88 34.004a2.272 2.272 0 112.272-2.272 2.27 2.27 0 01-2.272 2.272zm13.767-3.85H17.23a3.7 3.7 0 00-6.7 0H9.8a.37.37 0 01-.372-.393v-3.68h18.22zm0-14.19v8.688H9.43v-8.687a1.5 1.5 0 011.486-1.529h15.232a1.514 1.514 0 011.5 1.522zm1.43 2.332h3.186a1.51 1.51 0 011.357.807l1.43 2.765h-5.972zm4.508 15.7a2.272 2.272 0 112.272-2.272 2.27 2.27 0 01-2.272 2.27zm4.994-4.244a.37.37 0 01-.371.393h-1.272a3.7 3.7 0 00-6.7 0h-1.16v-6.86h7l2.272 1a.42.42 0 01.229.386z" fill="#0065ff"/></svg>