<?xml version="1.0" standalone="no"?>
<!DOCTYPE svg PUBLIC "-//W3C//DTD SVG 20010904//EN"
 "http://www.w3.org/TR/2001/REC-SVG-20010904/DTD/svg10.dtd">
<svg version="1.0" xmlns="http://www.w3.org/2000/svg"
 width="512.000000pt" height="512.000000pt" viewBox="0 0 512.000000 512.000000"
 preserveAspectRatio="xMidYMid meet">

<g transform="translate(0.000000,512.000000) scale(0.100000,-0.100000)"
fill="#000000" stroke="none">
<path d="M3132 4097 c-13 -6 -35 -32 -48 -59 l-24 -48 -1488 0 c-1396 0 -1489
-1 -1522 -18 -66 -33 -67 -20 85 -587 110 -410 143 -519 161 -536 21 -20 131
-45 774 -179 52 -11 277 -58 500 -105 223 -47 466 -98 540 -113 l135 -27 -360
-3 c-334 -2 -363 -1 -415 17 -140 49 -312 52 -445 10 -63 -20 -98 -23 -338
-28 l-269 -6 -21 -25 c-45 -52 -217 -368 -217 -396 1 -68 38 -84 200 -84 l131
0 -8 -52 c-56 -373 177 -724 547 -824 88 -24 271 -24 360 0 144 38 282 127
386 248 42 49 134 218 134 246 0 9 116 12 510 10 l511 -3 33 -77 c103 -237
306 -394 565 -436 113 -19 232 -8 350 33 174 59 336 203 416 369 45 94 75 205
75 275 l0 41 336 0 336 0 29 30 30 29 -3 378 -3 378 -239 485 c-131 267 -273
557 -316 645 -60 125 -84 163 -104 173 -20 9 -165 12 -567 12 -452 0 -545 -2
-568 -14 -29 -15 -54 -68 -567 -1178 l-119 -258 -46 0 -47 0 192 423 c106 232
259 571 341 754 l150 332 728 3 729 3 24 28 c33 39 31 81 -5 118 l-29 29 -759
-1 c-538 0 -765 -4 -781 -12z m-155 -294 c-2 -5 -127 -280 -277 -613 -150
-333 -277 -609 -281 -613 -6 -7 -256 38 -267 48 -2 2 92 214 208 472 117 257
217 481 222 496 12 33 -5 82 -33 97 -26 14 -81 12 -102 -4 -10 -8 -120 -238
-244 -513 -124 -274 -228 -501 -232 -505 -6 -6 -306 54 -316 64 -3 2 83 199
190 437 107 238 195 439 195 447 0 24 -28 71 -45 78 -35 13 -82 6 -102 -16
-12 -13 -110 -221 -219 -463 -109 -242 -199 -442 -201 -444 -3 -4 -315 58
-321 64 -2 1 74 173 167 380 95 210 171 391 171 407 0 64 -88 102 -139 61 -11
-10 -100 -193 -197 -408 -97 -214 -179 -393 -182 -397 -7 -6 -307 54 -317 63
-2 3 61 149 141 324 81 177 146 334 147 352 2 69 -93 113 -141 65 -10 -10 -88
-172 -173 -360 -134 -298 -157 -342 -176 -342 -12 0 -24 4 -27 8 -2 4 -52 185
-111 402 -58 217 -108 401 -110 408 -3 9 278 12 1386 12 765 0 1388 -3 1386
-7z m694 -573 c192 -422 209 -456 240 -472 31 -16 75 -18 474 -18 l440 0 58
-115 c31 -63 57 -124 57 -135 0 -19 -7 -20 -219 -20 -204 0 -220 -1 -244 -20
-53 -42 -39 -127 24 -149 19 -7 112 -11 235 -11 l204 0 0 -50 0 -50 -115 0
c-141 0 -178 -12 -194 -63 -10 -30 -9 -41 4 -67 22 -43 49 -50 186 -50 l119 0
0 -50 0 -50 -282 2 -282 3 -21 60 c-82 235 -253 401 -495 477 -64 19 -95 23
-210 23 -120 -1 -143 -4 -213 -28 -77 -27 -80 -27 -343 -27 -151 0 -264 4
-262 9 2 5 134 291 293 635 274 592 291 626 314 624 22 -3 46 -49 232 -458z
m707 433 c5 -16 89 -189 185 -385 l176 -358 -367 0 -367 0 -173 378 c-94 208
-172 382 -172 385 0 4 159 7 354 7 l354 0 10 -27z m-2998 -1380 c179 -49 331
-201 386 -388 24 -80 24 -220 0 -300 -68 -233 -266 -390 -506 -402 -252 -14
-468 128 -559 367 -21 56 -25 82 -25 185 0 107 3 127 27 190 38 95 78 154 149
220 144 133 337 180 528 128z m2430 0 c179 -49 331 -201 386 -388 24 -80 24
-220 0 -300 -70 -237 -292 -405 -534 -405 -96 0 -164 15 -248 56 -129 63 -230
175 -283 314 -35 93 -37 264 -3 362 98 283 394 440 682 361z m-3184 -120 l-54
-78 -77 -3 c-46 -2 -76 1 -73 7 1 5 21 41 43 80 l40 71 88 0 88 0 -55 -77z
m2455 39 c-83 -106 -141 -257 -156 -409 l-7 -73 -478 0 -477 0 -6 88 c-10 135
-60 268 -141 375 -20 26 -36 49 -36 52 0 3 300 5 666 5 l666 0 -31 -38z"/>
<path d="M1105 2186 c-178 -59 -300 -198 -327 -374 -36 -227 112 -448 337
-507 374 -97 691 294 520 641 -45 93 -118 164 -213 212 -70 34 -82 37 -176 39
-64 2 -116 -2 -141 -11z m203 -171 c69 -21 129 -69 166 -135 28 -49 31 -64 31
-135 0 -70 -4 -87 -30 -134 -115 -209 -431 -185 -510 38 -45 130 5 266 124
338 75 45 135 53 219 28z"/>
<path d="M3510 2178 c-316 -111 -411 -517 -176 -752 182 -181 462 -181 644 0
223 222 160 590 -125 731 -67 33 -82 37 -176 40 -87 3 -112 0 -167 -19z m227
-163 c199 -59 267 -305 126 -456 -57 -61 -125 -90 -208 -90 -108 0 -187 46
-243 141 -24 40 -27 55 -27 135 0 80 3 95 27 136 71 121 196 172 325 134z"/>
</g>
</svg>
