<svg xmlns="http://www.w3.org/2000/svg" width="48" height="48"><path d="M40.5 28.794l-2.434-1.622.467-.666c.134-.2.205-.417.205-.65V22.3c0-.3-.12-.588-.332-.8l-2.618-2.618-3.2-5.332a1.14 1.14 0 00-.972-.55H10.022a1.14 1.14 0 00-.68.227l-1.89 1.416A1.14 1.14 0 007 15.55v.85c0 .313.254.567.567.567h.567v5.667h-.567A.567.567 0 007 23.2v7.933a1.134 1.134 0 001.133 1.133H8.7a3.4 3.4 0 106.8 0h18.133a3.4 3.4 0 005.722 2.499 3.4 3.4 0 00.878-3.632h.2a.567.567 0 00.567-.567v-.83a1.13 1.13 0 00-.5-.942zm-.63.943V30h-3.79l1.33-1.9zm-5.055-10.27c.048.08.105.153.17.218L36.8 21.5h-6.567v-4.533h3.08zm-15.912 9.4V25.22a1.14 1.14 0 00-.55-.972l-2.558-1.535a.57.57 0 00-.292-.081v-5.665h6.8v6.8a.567.567 0 00-.567.567v4.533zm6.233 0h-2.27V24.9h2.267zm0 0zM26.27 24.9a1.134 1.134 0 00-1.133-1.133h-1.7v-6.8H29.1v11.9h-2.833zM8.133 15.55l1.89-1.417h21.6l1.02 1.7h-24.5zm1.133 1.417h5.1v5.667h-5.1zM12.1 34.533a2.27 2.27 0 01-1.604-3.87 2.27 2.27 0 013.87 1.604 2.27 2.27 0 01-2.267 2.267zm3.2-3.4a3.395 3.395 0 00-6.4 0h-.765v-7.367h7.2l2.424 1.454v5.912zm3.6 0V30h10.2v1.133zm11.333 0v-8.5H37.6v3.22l-3.695 5.28zm9.067 1.133a2.27 2.27 0 01-2.267 2.219 2.27 2.27 0 01-2.267-2.219 2.3 2.3 0 01.045-.454c.008-.01.018-.018.025-.028l.455-.65h3.7a2.24 2.24 0 01.308 1.133z" fill="#0065ff"/></svg>