<svg xmlns="http://www.w3.org/2000/svg" width="48" height="48" stroke="#0065ff"><path d="M30.317 30.013a1.418 1.418 0 01-.006-.164 5.07 5.07 0 00.092-.824 2.59 2.59 0 00-.137-.824.353.353 0 01.01-.248 5.17 5.17 0 00-1.064-2.316l-.036-.062a5.49 5.49 0 00-4.27-2.045 5.56 5.56 0 00-2.117.421.175.175 0 01-.07.03 5.465 5.465 0 00-1.612 1.06.443.443 0 01-.64 0 .47.47 0 01-.137-.32c0-.12.05-.237.137-.32a6.38 6.38 0 011.694-1.166V17.12a.44.44 0 01.126-.332.43.43 0 01.332-.126 2.734 2.734 0 012.655 2.2l.5 3.814a6.42 6.42 0 014.015 2.212 2.27 2.27 0 001.94-1.816h-.412a.44.44 0 01-.332-.126.43.43 0 01-.126-.332V21.4l-2.24-1.866-1.1 1.1a.443.443 0 01-.64 0 .47.47 0 01-.137-.32c0-.12.05-.237.137-.32l1.374-1.374a.357.357 0 01.07-.07l1.3-1.3a.452.452 0 11.64.64l-1 1 1.596 1.326v-.36a.44.44 0 01.126-.332.43.43 0 01.332-.126h5.494v-2.746a.44.44 0 01.126-.332.43.43 0 01.332-.126h.46V14.83a.92.92 0 00-.916-.916.46.46 0 01-.397-.687.46.46 0 01.397-.229 1.84 1.84 0 011.83 1.83v1.37h.458a.44.44 0 01.332.126.43.43 0 01.126.332V19.4h3.727c3.064-.094 3.14 1.007 3.14 2.3v4.7a4.126 4.126 0 011.034 4.722 4.14 4.14 0 01-4.16 2.46 4.13 4.13 0 01-3.64-3.183h-8.5a6.83 6.83 0 01-.349 1.1.4.4 0 01-.412.275.274.274 0 01-.183-.046.5.5 0 01-.24-.253.445.445 0 01.01-.347 5.05 5.05 0 00.329-1.115zM24.312 19a1.67 1.67 0 00-1.236-1.374v5.26q.1-.03.2-.057a5.24 5.24 0 011.491-.211zm7.463 1.328v.747a.46.46 0 010 .3v.788h5.036v-1.837h-5.036zm6.868-3.2h-.914v6.868h.916V17.12zM45.5 21.7a1.35 1.35 0 00-1.374-1.374H39.56v1.83h5.952zm0 4.075v-2.7h-5.95v1.374a.44.44 0 01-.126.332.43.43 0 01-.332.126H37.27a.44.44 0 01-.332-.126.43.43 0 01-.126-.332v-1.376h-4.166a3.27 3.27 0 01-2.277 2.606 6.37 6.37 0 01.8 1.973h8.8c.66-1.333 2-2.206 3.476-2.282h.238l.2.005a4.06 4.06 0 011.618.4zm-1.832 6.912a3.205 3.205 0 00.336-6.393h-.01c-.046 0-.093-.008-.14-.01H43.5l-.118.01h-.033q-.153.016-.3.045h-.017l-.142.032h-.006q-.15.038-.3.1h-.01l-.13.05-.016.006-.136.06h-.008l-.1.055-.064.035-.04.023a3.234 3.234 0 00-1.36 1.584.3.3 0 01-.04.1 3.22 3.22 0 00-.188 1.1 3.184 3.184 0 00.93 2.276 3.19 3.19 0 002.275.935zm-12.362-3.2h8.242v-.153a4.19 4.19 0 01.061-.579l.027-.184h-8.33v.916z" fill="#0065ff" stroke-width=".3"/><g fill="none"><circle cx="24.864" cy="29.2" r="5.896" stroke-width="1.4"/><g stroke-width="1.3"><path stroke-linecap="round" d="M14.3 30.85h4.465"/><rect x="1.65" y="24.3" width="14.7" height="6.56" rx=".35" stroke-linejoin="round"/><circle cx="5.176" cy="33.182" r="2.017"/><path d="M2.3 26.85h13.2M1.65 22.9v3.182m14.7-3.182v3.182" stroke-linecap="round"/></g></g></svg>