<?xml version="1.0" standalone="no"?>
<!DOCTYPE svg PUBLIC "-//W3C//DTD SVG 20010904//EN"
 "http://www.w3.org/TR/2001/REC-SVG-20010904/DTD/svg10.dtd">
<svg version="1.0" xmlns="http://www.w3.org/2000/svg"
 width="880.000000pt" height="700.000000pt" viewBox="0 0 880.000000 700.000000"
 preserveAspectRatio="xMidYMid meet">

<g transform="translate(0.000000,700.000000) scale(0.100000,-0.100000)"
fill="#000000" stroke="none">
<path d="M880 6590 c-247 -5 -268 -7 -311 -28 -54 -26 -111 -79 -136 -125 -27
-49 -31 -396 -31 -2657 -1 -2063 3 -2376 31 -2442 21 -49 89 -116 144 -140 45
-20 216 -32 591 -41 l104 -2 32 -81 c48 -121 81 -171 170 -259 117 -116 249
-181 416 -206 299 -43 626 156 747 455 14 34 29 66 35 73 5 6 41 14 81 18 100
8 2187 13 2828 6 402 -5 530 -9 541 -19 9 -7 23 -34 33 -60 50 -134 164 -277
284 -356 291 -194 679 -144 920 119 62 69 95 124 138 230 l32 80 93 2 c278 7
548 24 593 38 58 17 125 79 150 138 27 66 34 268 35 992 0 921 -6 981 -96
1052 -84 65 -87 66 -365 77 l-255 9 -397 791 c-218 435 -427 842 -464 905 -79
132 -138 198 -214 236 -74 38 -145 42 -960 50 l-666 8 -7 105 c-3 58 -6 187
-6 286 -1 242 -16 555 -28 586 -14 35 -89 108 -137 133 -38 20 -59 21 -530 28
-583 9 -3018 8 -3395 -1z m3800 -2135 l0 -1855 -1997 2 -1998 3 -1 1845 c0
1015 1 1848 4 1853 2 4 901 7 1998 7 l1994 0 0 -1855z m1823 685 c17 -18 179
-328 437 -835 248 -488 465 -906 510 -985 80 -136 96 -142 411 -148 l246 -4 7
-130 c3 -72 3 -199 0 -284 l-7 -154 -1569 0 -1568 0 0 1281 0 1281 760 -4
c659 -3 761 -5 773 -18z m1610 -2927 c4 -97 4 -503 -1 -676 l-2 -67 -291 2
-291 3 -28 77 c-87 239 -291 411 -550 464 -142 28 -286 7 -435 -66 -151 -75
-250 -175 -324 -330 -23 -47 -47 -96 -54 -110 -11 -22 -22 -26 -87 -33 -126
-13 -3357 -4 -3370 9 -7 7 -26 45 -44 85 -105 242 -291 393 -547 445 -188 38
-399 -16 -556 -143 -112 -90 -179 -183 -231 -318 l-30 -80 -294 0 -293 0 0
410 c-1 226 1 416 3 423 3 9 754 12 3712 12 l3707 0 6 -107z m-6053 -484 c71
-16 165 -66 214 -113 85 -83 123 -201 113 -346 -7 -105 -39 -173 -116 -251
-133 -133 -310 -163 -484 -81 -118 55 -213 181 -237 314 -27 148 57 332 190
418 96 62 214 84 320 59z m4875 -5 c105 -27 209 -103 260 -189 65 -112 72
-280 17 -400 -78 -166 -270 -267 -449 -235 -145 25 -254 104 -315 227 -28 58
-33 79 -36 162 -3 79 0 107 18 160 73 217 285 333 505 275z"/>
<path d="M5323 4864 c-7 -3 -22 -22 -35 -42 -20 -33 -23 -53 -29 -252 -4 -118
-8 -482 -8 -807 l-1 -593 428 1 c235 1 634 5 887 8 l460 6 33 49 c18 28 32 61
32 79 0 45 -76 210 -340 742 -366 734 -394 781 -475 804 -40 11 -926 15 -952
5z m1120 -829 c152 -305 277 -558 277 -563 0 -9 -1035 -28 -1130 -20 l-45 3
-3 568 -2 567 313 0 313 0 277 -555z"/>
</g>
</svg>
