<svg xmlns="http://www.w3.org/2000/svg" width="48" height="48"><path d="M41.4 22.615l-4.575-5.874a.549.549 0 00-.045-.05A2.55 2.55 0 0035.142 16h-3.958a.6.6 0 00-.6.6v9.6h-3.252a6.384 6.384 0 002.053-4.8c0-3.19-2.128-5.8-4.8-5.98V14.2a.6.6 0 000-1.2H19.2a.6.6 0 000 1.2v1.2h-8.1c-2.81 0-5.1 2.69-5.1 6a6.387 6.387 0 002.053 4.8H6.6a.6.6 0 00-.6.6V31a.6.6 0 00.6.6h3a3 3 0 106 0h1.2a3 3 0 004.5 2.598 3 3 0 001.5-2.598H33a3 3 0 106 0h1.2a1.64 1.64 0 001.8-1.8v-5.7a2.15 2.15 0 00-.59-1.475zM35.153 17.2c.28.026.544.134.76.31l3.962 5.087h-5.083v-5.4zm-6.958 4.2c0 2.646-1.75 4.8-3.9 4.8H15.6v-9.6h8.7c2.145 0 3.894 2.153 3.894 4.8zm-13.8 4.8H12.6v-9.6h1.8zm6-12h3v1.2h-3zM7.2 21.398c0-2.646 1.75-4.8 3.9-4.8h.3v9.6h-.3c-2.15-.001-3.9-2.154-3.9-4.8zm5.4 12a1.8 1.8 0 010-3.6 1.8 1.8 0 011.8 1.8 1.8 1.8 0 01-1.8 1.797zm7.2 0a1.8 1.8 0 010-3.6 1.8 1.8 0 011.8 1.8 1.8 1.8 0 01-1.8 1.797zm2.745-3a2.993 2.993 0 00-5.49 0h-1.71a2.993 2.993 0 00-5.49 0H7.2v-3h23.394v3zm13.45 3a1.8 1.8 0 010-3.6 1.8 1.8 0 011.27 3.072 1.8 1.8 0 01-1.274.525zm4.8-3.6c0 .476-.124.6-.6.6h-1.46a2.993 2.993 0 00-5.49 0h-1.454V17.2h1.8v6a.6.6 0 00.6.6h6.548a.94.94 0 01.05.288zm0 0" fill="#0065ff"/></svg>