<svg xmlns="http://www.w3.org/2000/svg" width="48" height="48"><path d="M39.3 22.5h-5.378l-4.363-6a.57.57 0 00-.46-.232h-1.825l-.46-1.836a.567.567 0 00-.55-.43H20.6a.568.568 0 00-.55.43l-.46 1.836h-3.524a.56.56 0 00-.476.261l-3.803 5.97H8.7a1.705 1.705 0 00-1.7 1.7v5.667a.57.57 0 00.566.566h3.45a3.4 3.4 0 006.7 0h12.566a3.4 3.4 0 006.7 0h3.45a.567.567 0 00.565-.567V24.2a1.705 1.705 0 00-1.7-1.7zm-6.777 0h-7.956v-2.833h5.893zm-11.48-7.367h4.783l.283 1.133h-5.35zm-6.675 17a2.27 2.27 0 01-2.267-2.267 2.27 2.27 0 012.267-2.267 2.27 2.27 0 012.267 2.267 2.27 2.27 0 01-2.267 2.267zm9.066-2.833h-5.717a3.4 3.4 0 00-6.7 0H8.133v-5.1a.565.565 0 01.566-.566h3.4a.56.56 0 00.476-.261l3.8-5.973H28.81l.827 1.133H17.2a.568.568 0 00-.493.283l-2.267 3.968c-.097.177-.095.392.006.567s.285.285.487.283h8.5zm0-6.8h-7.525l1.62-2.833h5.9zm10.2 9.633a2.267 2.267 0 112.267-2.265 2.27 2.27 0 01-2.267 2.266zm6.233-5.1H39.3a.567.567 0 010-1.132h.567zm0-2.267H39.3a1.7 1.7 0 000 3.4h.567V29.3h-2.885a3.4 3.4 0 00-6.7 0h-5.715v-5.667H39.3a.565.565 0 01.566.566z" fill="#0065ff"/></svg>