<svg xmlns="http://www.w3.org/2000/svg" width="48" height="48" fill="#0065ff"><path d="M40.77 20.522l-6.3-6.292A4.134 4.134 0 0031.5 13H7.8A1.8 1.8 0 006 14.8v14.4a3 3 0 003 3h.648a4.195 4.195 0 008.3 0h12.1a4.195 4.195 0 008.3 0H40.2a1.8 1.8 0 001.8-1.8v-6.9a4.17 4.17 0 00-1.231-2.969zm-.824.878H28.8v-4.8h6.352l4.77 4.77c.01.01.016.02.025.03zm-12.345 0h-18v-4.8h18zM7.2 29.2V14.8a.6.6 0 01.6-.6h23.7a2.985 2.985 0 012.122.878l.32.322H9.6a1.2 1.2 0 00-1.2 1.2v4.8a1.2 1.2 0 001.2 1.2h18V31h-9.648a4.195 4.195 0 00-8.3 0H9a1.8 1.8 0 01-1.8-1.8zm6.6 5.4a3 3 0 110-6 3 3 0 110 6zm20.4 0a3 3 0 112.121-.879 3 3 0 01-2.121.879zm6-3.6h-1.848a4.195 4.195 0 00-8.3 0H28.8v-8.4h11.85a3 3 0 01.149.891v.3H39a1.8 1.8 0 100 3.6h1.8v1.2H39v1.2h1.8v.6a.6.6 0 01-.6.6zm.6-6v1.2H39a.6.6 0 010-1.2zM30 23.8h2.4V25H30z"/></svg>