<svg xmlns="http://www.w3.org/2000/svg" width="48" height="48"><path d="M9.06 31.163l-2.9-4.423a1 1 0 01.259-1.358l15.346-10.817a3.55 3.55 0 01.164-2.359 5.09 5.09 0 011.336-1.75c.442-.33 1.366-.69 1.72-.215s-.072.926-.57 1.158a3 3 0 00-1.149 1.515 2.75 2.75 0 000 2.034l3.613 7.776a1 1 0 01-.478 1.32l-2.752 1.338 1.687 6.632h5.335v-12.28c.047-.567.525-1 1.094-.994l7.323.024a1 1 0 01.951.7l1.918 5.95a1 1 0 01.044.3v6.866a1 1 0 01-.995.995h-2.553a3.71 3.71 0 01-7.4 0h-9.48a3.705 3.705 0 01-6.415 2.284 3.71 3.71 0 01-5.878-4.457.99.99 0 01-.219-.239zM22.228 16.03L7.52 26.3l2.538 3.98 15.54-7.3zm16.86 3.984h-3.663v5.4h5.263zm1.6 6.688h-5.56a1 1 0 01-.995-.995v-5.693h-2.075v10.774a3.7 3.7 0 012.7-1.165 3.61 3.61 0 013.255 1.868 2.06 2.06 0 01.249.6l2.432-.074v-5.312zm-5.935 9.023a2.38 2.38 0 002.5-2.4 2.44 2.44 0 00-2.439-2.39 2.44 2.44 0 00-2.438 2.39 2.38 2.38 0 002.377 2.403zm-13.61-4.142c.1.13.15.28.174.435H23.9l-1.46-6-8.62 3.868a3.72 3.72 0 011.338.919 3.7 3.7 0 015.984.774zm-3.27 4.088a2.28 2.28 0 002.383-2.338c.008-.633-.24-1.242-.7-1.687s-1.06-.7-1.693-.677a2.35 2.35 0 00-2.118 3.554 2.35 2.35 0 002.118 1.146zm-5.43 0a2.112 2.112 0 002.1-2.338c.05-.595-.147-1.185-.544-1.63s-.96-.71-1.556-.733a2.21 2.21 0 00-2.385 2.364 2.17 2.17 0 002.385 2.337z" fill="#0065ff"/></svg>