<svg xmlns="http://www.w3.org/2000/svg" width="48" height="48" stroke="#0065ff"><path d="M26.768 30.715a1.548 1.548 0 01-.007-.18 5.55 5.55 0 00.1-.907 2.85 2.85 0 00-.151-.907.38.38 0 01.012-.273 5.7 5.7 0 00-1.17-2.547.7.7 0 01-.04-.068 6.04 6.04 0 00-4.695-2.249c-.8.001-1.6.158-2.33.463a.198.198 0 01-.078.032 5.98 5.98 0 00-1.773 1.168.49.49 0 01-.705 0c-.092-.095-.15-.22-.15-.353s.055-.26.15-.352a7.02 7.02 0 011.863-1.283v-6.725c-.007-.135.043-.266.14-.36s.227-.146.36-.14a3.01 3.01 0 012.921 2.417l.553 4.2a7.06 7.06 0 014.417 2.433 2.5 2.5 0 002.132-1.995h-.454c-.135.007-.266-.043-.36-.14s-.146-.227-.14-.36V21.25L24.9 19.2l-1.213 1.21a.489.489 0 01-.705 0c-.093-.095-.15-.22-.15-.352s.055-.26.15-.352l1.51-1.51a.4.4 0 01.076-.076l1.435-1.435a.5.5 0 01.705.705l-1.1 1.1 1.754 1.46v-.395c-.007-.135.043-.266.14-.36s.227-.146.36-.14h6.044V16.03c-.007-.135.043-.266.14-.36s.227-.146.36-.14h.5v-1.514a1.01 1.01 0 00-1.007-1.007A.504.504 0 1133.9 12a2.02 2.02 0 012.015 2.015v1.51h.5c.135-.007.266.043.36.14s.146.227.14.36v3.022h4.1c3.37-.1 3.454 1.108 3.454 2.518v5.174a4.539 4.539 0 01-3.439 7.901 4.535 4.535 0 01-4.003-3.5H27.7a7.562 7.562 0 01-.384 1.21.44.44 0 01-.453.3.3.3 0 01-.2-.05.5.5 0 01-.252-.655c.166-.395.287-.808.358-1.23zM20.163 18.6a1.83 1.83 0 00-1.36-1.51v5.785q.11-.033.223-.062a5.762 5.762 0 011.64-.232zm8.21 1.46v.822a.506.506 0 010 .326v.867h5.54v-2.018h-5.54zm7.555-3.525H34.92v7.555h1.007v-7.558zm7.554 5.033a1.48 1.48 0 00-1.511-1.511h-5.036v2.015h6.547zm0 4.482v-2.97h-6.547v1.51c.007.135-.043.266-.14.36s-.227.146-.36.14h-2.018c-.135.007-.266-.043-.36-.14s-.146-.227-.14-.36v-1.51H29.33a3.594 3.594 0 01-2.505 2.866 7.01 7.01 0 01.88 2.17h9.683a4.522 4.522 0 013.823-2.51h.04l.215-.005.232.006a4.48 4.48 0 011.783.446zm-2.015 7.6c1.873-.004 3.416-1.47 3.514-3.342s-1.284-3.49-3.146-3.7h-.01l-.153-.01h-.414l-.13.01h-.036q-.17.017-.332.05h-.018q-.08.016-.156.036h-.007q-.166.042-.325.1h-.012q-.072.026-.142.056l-.017.007q-.076.032-.15.067h-.01l-.12.06-.07.04-.045.026a3.55 3.55 0 00-1.495 1.742.36.36 0 01-.045.1 3.57 3.57 0 00-.207 1.2 3.5 3.5 0 003.525 3.555zm-13.6-3.525h9.066v-.17a4.61 4.61 0 01.067-.637l.03-.2h-9.16v1.007z" fill="#0065ff" stroke-width=".3"/><g fill="none" stroke-width="1.4"><circle cx="20.878" cy="29.646" r="6.382"/><path d="M18.113 19.466l-11.096 6.67m-5.017 0h13.162m-11.337.002v2.83L5.61 30.71m1.403-4.573v2.83l1.784 1.743m1.757-4.573v2.83l1.784 1.743" stroke-linecap="round"/></g></svg>