<?xml version="1.0" standalone="no"?>
<!DOCTYPE svg PUBLIC "-//W3C//DTD SVG 20010904//EN"
 "http://www.w3.org/TR/2001/REC-SVG-20010904/DTD/svg10.dtd">
<svg version="1.0" xmlns="http://www.w3.org/2000/svg"
 width="512.000000pt" height="512.000000pt" viewBox="0 0 512.000000 512.000000"
 preserveAspectRatio="xMidYMid meet">

<g transform="translate(0.000000,512.000000) scale(0.100000,-0.100000)"
fill="#000000" stroke="none">
<path d="M129 3741 l-29 -29 0 -566 0 -565 24 -28 24 -28 1860 0 1860 0 26 24
26 24 0 571 c-1 603 0 589 -47 614 -16 9 -484 12 -1868 12 l-1847 0 -29 -29z
m3621 -596 l0 -455 -1740 0 -1740 0 0 455 0 455 1740 0 1740 0 0 -455z"/>
<path d="M4124 3632 c-49 -24 -80 -64 -93 -123 -7 -27 -11 -248 -11 -561 l0
-518 -1927 0 c-1843 0 -1930 -1 -1968 -19 -50 -22 -101 -79 -116 -129 -7 -24
-10 -94 -7 -187 3 -140 5 -154 31 -207 32 -64 80 -111 146 -142 37 -17 72 -22
185 -26 l140 -5 11 -46 c41 -158 181 -283 349 -311 204 -34 419 108 471 311
l11 46 601 3 601 2 11 -46 c41 -161 160 -275 325 -311 66 -14 88 -15 147 -5
76 13 152 47 213 95 52 41 113 138 133 210 l16 57 206 -2 205 -3 11 -46 c19
-71 63 -144 122 -200 229 -216 599 -116 693 189 l18 57 123 5 c97 4 134 10
170 26 66 31 114 78 146 142 l28 57 3 475 c2 325 -1 489 -8 520 -27 107 -116
193 -229 220 l-65 16 -108 170 c-185 288 -195 296 -408 301 -117 3 -140 1
-176 -15z m318 -352 l67 -110 -114 0 -115 0 0 110 0 110 48 0 47 0 67 -110z
m406 -382 c9 -9 12 -76 12 -240 l0 -228 -290 0 -290 0 0 240 0 240 278 0 c203
0 281 -3 290 -12z m-4123 -745 c-51 -27 -113 -82 -145 -129 l-31 -44 -138 0
c-117 0 -140 2 -145 16 -3 9 -6 51 -6 95 l0 79 248 0 c232 -1 245 -2 217 -17z
m2012 -20 c-50 -35 -137 -126 -137 -145 0 -5 -292 -8 -650 -8 l-649 0 -31 44
c-32 47 -94 102 -145 129 -28 15 37 16 819 17 l848 0 -55 -37z m1288 20 c-51
-27 -113 -82 -145 -129 l-31 -44 -254 0 -253 0 -21 33 c-24 39 -83 96 -135
131 l-39 26 454 0 c421 -1 452 -2 424 -17z m835 -62 c0 -44 -3 -86 -6 -95 -5
-13 -26 -16 -130 -16 l-123 0 -31 44 c-32 47 -94 102 -145 129 -28 15 -16 16
203 17 l232 0 0 -79z m-3864 -160 c59 -27 87 -72 92 -146 3 -50 0 -65 -20 -94
-40 -59 -72 -76 -143 -76 -71 0 -103 17 -143 76 -32 46 -28 138 7 188 27 37
91 71 136 71 17 0 48 -9 71 -19z m2040 0 c129 -58 137 -233 14 -298 -169 -90
-332 115 -203 258 53 59 117 72 189 40z m1283 -14 c97 -64 96 -208 -2 -281
-40 -30 -144 -30 -183 0 -61 45 -89 113 -74 181 12 51 39 84 91 111 55 29 113
25 168 -11z"/>
</g>
</svg>
