<svg xmlns="http://www.w3.org/2000/svg" width="48" height="48" fill="#0065ff"><path d="M12.662 34.482a2.45 2.45 0 01-.242-.012 3.416 3.416 0 01-3.208-2.556h-4.2A1.02 1.02 0 014 30.9V15.875a1.02 1.02 0 01.7-.965l24.476-.058v-.83A1.024 1.024 0 0130.2 13h4.6c.564.001 1.02.458 1.022 1.022v1.023h4.273c.4.001.76.232.928.594l2.884 6.247a1.02 1.02 0 01.093.428v8.066a1.536 1.536 0 01-1.534 1.534H39.25a3.575 3.575 0 01-6.856 0h-3.88a3.6 3.6 0 01-3.427 2.556 3.55 3.55 0 01-3.067-1.744 3.556 3.556 0 01-3.067 1.744 3.34 3.34 0 01-3.175-2.105 2.97 2.97 0 01-1.036 1.3 3.54 3.54 0 01-2.08.817zm23.16-6.147a2.556 2.556 0 00-1.809 4.363 2.56 2.56 0 002.786.555 2.555 2.555 0 001.578-2.362 2.56 2.56 0 00-2.555-2.556zm-10.735 0a2.556 2.556 0 102.556 2.556 2.56 2.56 0 00-2.556-2.556zm-6.134 0a2.556 2.556 0 102.556 2.556 2.56 2.56 0 00-2.556-2.556zm-6.4 0a2.556 2.556 0 00-1.809 4.363 2.56 2.56 0 002.786.555 2.555 2.555 0 001.578-2.362 2.56 2.56 0 00-2.555-2.556zM39.25 29.87a3.54 3.54 0 01.15 1.022h3.067a.51.51 0 00.511-.511v-.5h-3.73zm-10.735 0a3.53 3.53 0 01.15 1.022h3.578a3.56 3.56 0 01.15-1.022h-3.88zm-23.5 0v1.022h4.1a3.56 3.56 0 01.15-1.022zm7.536-2.56a3.44 3.44 0 013.218 2.143 3.4 3.4 0 013.175-2.14 3.55 3.55 0 013.067 1.745 3.57 3.57 0 016-.212h4.87a3.57 3.57 0 015.864 0h4.225v-1.022h-1.535V26.8h1.534v-4.486l-2.883-6.247h-6.32V26.3H5.022v2.556h4.6a4.18 4.18 0 012.7-1.536h.237zm17.128-9.454h1.022v7.4h2.045v-9.2a1.024 1.024 0 011.022-1.022H34.8V14.02h-4.6v1.853H5.022v9.392h2.946v-7.4H9v7.4h2.73v-7.4h1.056v7.4h2.588v-7.4H16.4v7.4h2.556v-7.4h1.022v7.4h2.552v-7.4h1.022v7.4h2.556v-7.4h1.022v7.4h2.556v-7.4zm6.13-.766h2.966c.398.001.76.233.928.594l2.24 4.854v2.22a1.024 1.024 0 01-1.022 1.022H35.82a1.024 1.024 0 01-1.022-1.022v-6.645c0-.565.457-1.022 1.022-1.023zm0 5.112v2.556h5.112v-1.534l-.26-1.022-1.887-4.1H35.82z"/></svg>