<?xml version="1.0" standalone="no"?>
<!DOCTYPE svg PUBLIC "-//W3C//DTD SVG 20010904//EN"
 "http://www.w3.org/TR/2001/REC-SVG-20010904/DTD/svg10.dtd">
<svg version="1.0" xmlns="http://www.w3.org/2000/svg"
 width="840.000000pt" height="859.000000pt" viewBox="0 0 840.000000 859.000000"
 preserveAspectRatio="xMidYMid meet">

<g transform="translate(0.000000,859.000000) scale(0.100000,-0.100000)"
fill="#000000" stroke="none">
<path d="M2840 6750 c-75 -14 -100 -22 -100 -31 0 -5 -7 -9 -15 -9 -20 0 -135
-113 -135 -131 0 -8 -9 -21 -20 -29 -14 -10 -20 -26 -20 -52 0 -21 -4 -38 -10
-38 -6 0 -10 -41 -10 -104 0 -73 -4 -107 -12 -113 -7 -4 -344 -8 -748 -8 -507
-1 -746 -5 -770 -13 -19 -6 -55 -16 -80 -22 -25 -7 -60 -18 -78 -26 -18 -8
-37 -14 -43 -14 -15 0 -143 -63 -147 -72 -2 -4 -11 -8 -21 -8 -9 0 -23 -9 -31
-20 -8 -11 -20 -20 -28 -20 -7 0 -24 -11 -38 -25 -14 -14 -29 -25 -35 -25 -14
0 -199 -187 -199 -201 0 -6 -13 -24 -30 -39 -16 -15 -30 -35 -30 -44 0 -9 -4
-16 -10 -16 -5 0 -10 -6 -10 -14 0 -8 -3 -16 -7 -18 -13 -5 -78 -139 -93 -188
-7 -25 -17 -49 -22 -55 -4 -5 -8 -26 -8 -47 0 -21 -4 -38 -10 -38 -5 0 -10
-24 -10 -54 0 -30 -4 -58 -10 -61 -13 -8 -14 -547 -1 -560 5 -6 12 -30 15 -55
9 -81 18 -120 27 -126 5 -3 9 -14 9 -25 0 -10 4 -27 9 -37 4 -9 26 -54 47 -99
21 -46 42 -83 46 -83 4 0 8 -9 8 -20 0 -11 5 -20 10 -20 6 0 10 -7 10 -15 0
-8 5 -15 10 -15 6 0 10 -7 10 -15 0 -8 5 -15 10 -15 6 0 10 -5 10 -10 0 -25
226 -250 252 -250 6 0 18 -8 27 -18 9 -10 31 -25 48 -33 18 -7 33 -17 33 -21
0 -5 7 -8 15 -8 8 0 15 -4 15 -10 0 -5 9 -10 19 -10 11 0 23 -4 26 -10 3 -5
15 -10 25 -10 10 0 20 -4 22 -8 1 -4 44 -20 93 -35 50 -16 104 -32 121 -37 17
-6 42 -10 56 -10 58 0 58 -1 58 -151 l0 -139 -474 0 c-306 0 -477 -4 -481 -10
-3 -5 -13 -10 -21 -10 -20 0 -44 -24 -44 -44 0 -9 -4 -16 -10 -16 -5 0 -10
-20 -10 -45 0 -25 5 -45 10 -45 6 0 10 -8 10 -18 0 -11 16 -27 41 -40 35 -19
57 -22 155 -22 63 0 114 -2 114 -5 0 -3 -11 -17 -24 -30 -14 -13 -27 -34 -31
-45 -3 -11 -11 -20 -16 -20 -5 0 -9 -7 -9 -15 0 -8 -4 -15 -10 -15 -5 0 -10
-9 -10 -20 0 -11 -4 -20 -10 -20 -5 0 -10 -9 -10 -19 0 -11 -3 -21 -8 -23 -12
-5 -49 -127 -62 -204 -16 -90 -1 -314 21 -314 5 0 9 -13 9 -30 0 -16 5 -30 10
-30 6 0 10 -13 10 -30 0 -16 5 -30 10 -30 6 0 10 -9 10 -20 0 -11 5 -20 10
-20 6 0 10 -7 10 -15 0 -8 5 -15 10 -15 6 0 10 -8 10 -18 0 -10 9 -24 20 -32
11 -8 20 -19 20 -25 0 -12 64 -85 74 -85 4 0 22 -15 41 -33 45 -43 57 -52 86
-67 13 -7 26 -16 29 -19 3 -3 19 -12 35 -20 17 -7 38 -17 47 -22 10 -5 25 -9
33 -9 8 0 15 -4 15 -10 0 -5 18 -10 40 -10 22 0 40 -4 40 -10 0 -5 23 -10 50
-10 28 0 50 -4 50 -10 0 -6 27 -10 60 -10 33 0 60 4 60 10 0 6 28 10 65 10 37
0 65 4 65 10 0 6 18 10 39 10 22 0 43 4 46 10 3 5 15 10 26 10 10 0 19 5 19
10 0 6 9 10 20 10 11 0 20 5 20 10 0 6 7 10 15 10 9 0 21 4 28 10 7 5 41 31
77 57 73 54 130 107 130 123 0 5 5 10 10 10 6 0 10 4 10 10 0 5 7 18 16 29 17
20 44 18 44 -3 0 -12 103 -126 114 -126 4 0 22 -15 40 -32 18 -18 49 -42 67
-52 78 -45 123 -66 141 -66 10 0 18 -4 18 -10 0 -5 13 -10 29 -10 17 0 33 -5
36 -10 3 -6 33 -10 66 -10 33 0 59 -4 59 -10 0 -6 30 -10 70 -10 40 0 70 4 70
10 0 6 25 10 55 10 30 0 55 5 55 10 0 6 14 10 30 10 17 0 30 4 30 8 0 4 21 14
47 22 26 7 52 17 58 22 5 4 35 25 65 45 113 75 272 261 287 336 3 15 9 27 14
27 5 0 9 11 9 24 0 14 5 28 10 31 6 3 10 21 10 38 1 59 11 63 164 71 76 4 196
4 267 0 l129 -7 0 -43 c0 -24 5 -44 10 -44 6 0 10 -16 10 -35 0 -19 5 -35 10
-35 6 0 10 -7 10 -15 0 -30 111 -145 160 -167 17 -7 30 -16 30 -20 0 -5 14 -8
30 -8 17 0 30 -4 30 -10 0 -7 167 -10 480 -10 313 0 480 3 480 10 0 6 13 10
28 10 55 0 222 133 222 178 0 6 5 12 10 12 6 0 10 14 10 30 0 17 5 30 10 30 6
0 10 22 10 49 0 33 5 53 16 62 13 11 115 14 530 14 283 1 518 -1 523 -4 4 -4
14 -31 21 -61 8 -30 24 -76 37 -102 13 -26 23 -54 23 -63 0 -8 5 -15 10 -15 6
0 10 -7 10 -15 0 -8 5 -15 10 -15 6 0 10 -8 10 -18 0 -10 9 -24 20 -32 11 -8
20 -20 20 -27 0 -16 105 -123 120 -123 5 0 10 -4 10 -8 0 -4 22 -21 50 -37 27
-17 50 -33 50 -37 0 -5 9 -8 20 -8 11 0 20 -4 20 -10 0 -5 9 -10 20 -10 11 0
20 -4 20 -10 0 -5 11 -10 25 -10 14 0 25 -4 25 -10 0 -5 18 -10 40 -10 22 0
40 -4 40 -10 0 -5 23 -10 50 -10 28 0 50 -4 50 -10 0 -6 30 -10 70 -10 40 0
70 4 70 10 0 6 25 10 55 10 30 0 55 5 55 10 0 6 18 10 40 10 22 0 40 5 40 10
0 6 11 10 25 10 14 0 25 5 25 10 0 6 9 10 20 10 11 0 20 3 20 8 0 4 18 16 40
26 22 11 40 23 40 28 0 4 6 8 13 8 23 0 177 142 177 164 0 6 9 18 20 26 11 8
20 22 20 32 0 10 5 18 10 18 6 0 10 7 10 15 0 8 4 15 8 15 5 0 15 23 22 50 7
28 17 50 21 50 6 0 13 25 26 98 3 18 10 35 16 39 7 4 113 8 237 8 162 1 236 6
263 15 20 8 37 18 37 22 0 4 7 8 15 8 8 0 15 5 15 10 0 6 7 10 15 10 8 0 15 8
15 18 0 10 9 24 20 32 12 8 20 26 20 42 0 15 5 28 10 28 7 0 10 243 10 710 0
467 -3 710 -10 710 -5 0 -10 11 -10 25 0 14 -4 25 -10 25 -5 0 -10 6 -10 13 0
7 -9 32 -20 55 -11 22 -20 48 -20 57 0 8 -4 15 -10 15 -5 0 -10 7 -10 14 0 13
-50 130 -81 188 -5 10 -9 25 -9 33 0 8 -4 15 -10 15 -5 0 -10 9 -10 20 0 11
-4 20 -10 20 -5 0 -10 14 -10 30 0 17 -4 30 -10 30 -5 0 -10 11 -10 25 0 14
-4 25 -10 25 -5 0 -10 9 -10 20 0 11 -4 20 -10 20 -5 0 -10 14 -10 30 0 17 -4
30 -10 30 -5 0 -10 9 -10 20 0 11 -4 20 -10 20 -5 0 -10 7 -10 15 0 13 -35 97
-76 179 -8 16 -14 35 -14 43 0 7 -4 13 -10 13 -5 0 -10 11 -10 24 0 14 -4 28
-10 31 -5 3 -10 15 -10 26 0 10 -4 19 -10 19 -5 0 -10 11 -10 25 0 14 -4 25
-10 25 -5 0 -10 9 -10 20 0 11 -4 20 -10 20 -5 0 -10 14 -10 30 0 17 -4 30
-10 30 -5 0 -10 9 -10 20 0 11 -3 20 -8 20 -4 0 -14 15 -21 33 -8 17 -20 38
-25 45 -6 7 -29 34 -51 61 -22 27 -44 50 -48 50 -5 1 -21 14 -36 30 -33 35
-181 115 -231 125 -94 19 -236 24 -575 20 -278 -2 -379 -7 -405 -17 -58 -22
-101 -50 -144 -94 -56 -57 -64 -68 -77 -100 -6 -15 -15 -37 -20 -48 -26 -64
-29 -193 -29 -1118 l0 -967 -655 0 -655 0 0 139 c0 151 0 151 59 151 16 0 41
4 57 9 16 5 70 22 119 37 50 15 94 31 99 36 6 4 18 8 28 8 10 0 18 5 18 10 0
6 9 10 20 10 11 0 20 5 20 10 0 6 9 10 20 10 11 0 20 5 20 10 0 6 7 10 15 10
8 0 29 14 47 30 17 17 35 30 40 30 5 0 15 6 22 13 7 6 34 30 61 52 77 64 105
92 105 105 0 7 13 24 29 39 31 29 121 163 121 180 0 6 5 11 10 11 6 0 10 9 10
20 0 11 5 20 10 20 6 0 10 9 10 20 0 11 5 20 10 20 6 0 10 14 10 30 0 17 5 30
10 30 6 0 10 14 10 30 0 17 5 30 10 30 6 0 10 16 10 35 0 19 5 35 10 35 6 0
10 24 10 54 0 30 5 58 10 61 6 4 10 112 10 290 0 178 -4 286 -10 290 -5 3 -10
26 -10 50 0 24 -4 47 -10 50 -5 3 -10 24 -10 46 0 21 -4 39 -10 39 -5 0 -10
14 -10 30 0 17 -4 30 -8 30 -5 0 -15 23 -22 50 -7 28 -17 50 -22 50 -4 0 -8 4
-8 9 0 15 -73 134 -97 159 -13 13 -23 27 -23 32 0 10 -179 193 -218 223 -12 9
-27 17 -32 17 -6 0 -10 5 -10 10 0 6 -7 10 -15 10 -8 0 -15 5 -15 10 0 6 -7
10 -15 10 -8 0 -15 5 -15 10 0 6 -9 10 -19 10 -11 0 -21 4 -23 8 -4 11 -144
76 -198 91 -25 7 -54 17 -65 21 -68 28 -334 37 -1043 35 l-562 -2 -5 21 c-3
12 -7 64 -9 116 -5 108 -14 170 -26 170 -5 0 -12 9 -15 20 -4 11 -17 32 -31
45 -13 13 -24 27 -24 31 0 3 -15 19 -32 35 -29 26 -56 41 -123 69 -29 13 -272
20 -325 10z m250 -240 c0 -5 7 -10 14 -10 8 0 27 -15 41 -34 21 -28 28 -50 32
-109 3 -41 3 -86 -1 -101 l-6 -26 -195 3 -195 2 0 103 c0 61 4 102 10 102 6 0
10 6 10 13 0 7 9 19 21 27 11 8 28 20 37 27 21 15 232 18 232 3z m-1602 -675
c2 -149 4 -162 25 -186 12 -14 32 -31 44 -37 27 -15 93 -16 93 -2 0 6 6 10 13
10 20 0 53 41 62 75 5 17 10 92 12 168 l4 137 1237 -2 1237 -3 5 -150 c5 -161
16 -202 58 -220 12 -5 22 -13 22 -17 0 -5 16 -8 36 -8 35 0 69 13 89 34 38 41
40 50 45 205 l5 156 165 -2 c184 -2 290 -10 305 -24 5 -5 18 -9 30 -9 41 0
224 -80 233 -102 2 -5 10 -8 18 -8 8 0 14 -4 14 -10 0 -5 6 -10 14 -10 7 0 32
-18 55 -40 22 -22 45 -40 50 -40 9 0 64 -62 120 -135 17 -22 35 -45 41 -52 5
-7 10 -19 10 -28 0 -8 5 -15 10 -15 6 0 10 -9 10 -20 0 -11 5 -20 10 -20 6 0
10 -9 10 -20 0 -11 5 -20 10 -20 6 0 10 -11 10 -25 0 -14 5 -25 10 -25 6 0 10
-13 10 -30 0 -16 4 -30 9 -30 17 0 23 -93 27 -384 3 -191 1 -293 -6 -300 -5
-5 -10 -27 -10 -48 0 -21 -4 -38 -10 -38 -5 0 -10 -13 -10 -30 0 -16 -4 -30
-10 -30 -5 0 -10 -13 -10 -30 0 -16 -3 -30 -7 -30 -5 0 -19 -25 -33 -55 -14
-30 -28 -55 -32 -55 -5 0 -8 -7 -8 -15 0 -9 -10 -27 -22 -40 -13 -13 -36 -40
-53 -61 -47 -57 -126 -134 -139 -134 -6 0 -18 -9 -26 -20 -8 -11 -22 -20 -32
-20 -10 0 -18 -4 -18 -10 0 -5 -7 -10 -15 -10 -8 0 -15 -4 -15 -10 0 -5 -9
-10 -20 -10 -11 0 -20 -4 -20 -10 0 -5 -9 -10 -19 -10 -11 0 -21 -4 -23 -8 -4
-11 -125 -48 -220 -67 -56 -11 -122 -15 -245 -13 l-168 3 -5 676 c-4 580 -7
679 -20 695 -28 36 -39 44 -54 44 -9 0 -16 5 -16 10 0 6 -13 10 -30 10 -16 0
-30 -4 -30 -10 0 -5 -9 -10 -20 -10 -11 0 -20 -4 -20 -10 0 -5 -6 -10 -13 -10
-7 0 -21 -16 -30 -35 -15 -32 -17 -98 -17 -700 l0 -665 -1240 0 -1240 0 -3
658 c-2 361 -7 670 -12 687 -9 34 -47 75 -69 75 -8 0 -18 5 -21 10 -3 6 -19
10 -36 10 -16 0 -29 -4 -29 -10 0 -5 -7 -10 -16 -10 -9 0 -27 -12 -40 -27
l-24 -28 0 -683 0 -684 -207 4 c-233 5 -321 21 -435 79 -10 5 -25 9 -33 9 -8
0 -15 5 -15 10 0 6 -8 10 -18 10 -10 0 -24 9 -32 20 -8 11 -22 20 -32 20 -10
0 -18 5 -18 10 0 6 -4 10 -10 10 -14 0 -43 24 -127 107 -40 40 -73 77 -73 84
0 6 -8 19 -19 28 -23 20 -111 182 -111 204 0 9 -4 17 -10 17 -5 0 -10 14 -10
30 0 17 -4 30 -10 30 -5 0 -10 18 -10 39 0 22 -4 43 -10 46 -14 8 -14 585 0
585 6 0 10 14 10 32 0 38 23 116 51 170 5 10 9 25 9 33 0 8 4 15 8 15 5 0 17
18 27 40 10 22 22 40 27 40 4 0 8 8 8 18 0 10 9 24 20 32 11 8 20 19 20 25 0
6 9 17 20 25 11 8 20 19 20 25 0 5 14 21 31 35 17 14 46 40 64 58 19 17 39 32
45 32 5 0 10 5 10 10 0 6 7 10 15 10 8 0 15 5 15 10 0 6 7 10 15 10 8 0 15 5
15 10 0 6 9 10 19 10 11 0 21 4 23 8 4 11 80 45 148 67 30 9 63 21 72 26 10 5
41 9 70 9 29 0 60 5 68 10 9 6 84 9 180 7 l165 -2 3 -160z m5806 -366 c101
-26 122 -33 137 -46 8 -7 20 -13 26 -13 6 0 33 -22 59 -49 65 -66 74 -77 74
-96 0 -8 5 -15 10 -15 6 0 10 -11 10 -25 0 -29 36 -27 -495 -30 -359 -2 -367
-3 -401 -72 -17 -33 -19 -67 -22 -279 -4 -266 10 -409 47 -485 12 -24 21 -48
21 -54 0 -6 9 -17 20 -25 11 -8 20 -20 20 -28 0 -11 61 -75 114 -119 25 -22
86 -53 101 -53 8 0 15 -4 15 -10 0 -5 14 -10 30 -10 17 0 30 -4 30 -10 0 -7
180 -10 520 -10 l520 0 0 -209 0 -208 -112 1 c-80 0 -113 -3 -116 -12 -2 -6
-10 -12 -18 -12 -22 0 -103 -86 -120 -126 -33 -79 -27 -284 9 -347 26 -45 97
-107 122 -107 14 0 25 -4 25 -10 0 -6 42 -10 105 -10 l105 0 0 -139 0 -139
-85 -7 c-46 -4 -139 -3 -207 1 l-123 9 -5 30 c-9 50 -44 155 -52 155 -4 0 -8
9 -8 20 0 11 -4 20 -10 20 -5 0 -10 9 -10 20 0 11 -4 20 -10 20 -5 0 -10 7
-10 15 0 8 -4 15 -9 15 -5 0 -13 10 -17 22 -8 25 -159 175 -186 183 -10 4 -18
11 -18 16 0 5 -7 9 -15 9 -9 0 -25 9 -37 20 -12 11 -30 20 -40 20 -10 0 -18 5
-18 10 0 6 -11 10 -25 10 -14 0 -25 4 -25 9 0 5 -15 12 -32 15 -18 4 -55 12
-83 18 -27 6 -193 12 -367 15 l-318 4 0 1000 c0 659 3 999 10 999 6 0 10 8 10
18 0 23 44 63 85 78 40 16 711 18 769 3z m471 -594 c19 -41 35 -82 35 -90 0
-8 5 -15 10 -15 6 0 10 -9 10 -19 0 -11 5 -23 10 -26 6 -3 10 -15 10 -26 0
-10 5 -19 10 -19 6 0 10 -11 10 -25 0 -14 5 -25 10 -25 6 0 10 -11 10 -25 0
-14 5 -25 10 -25 6 0 10 -11 10 -24 0 -14 5 -28 10 -31 6 -3 10 -15 10 -26 0
-10 5 -19 10 -19 6 0 10 -7 10 -15 0 -8 4 -23 9 -33 33 -62 60 -134 55 -147
-5 -12 -23 -15 -80 -15 -43 0 -74 4 -74 10 0 6 -40 10 -100 10 -60 0 -100 -4
-100 -10 0 -6 -40 -10 -100 -10 -60 0 -100 4 -100 10 0 6 -40 10 -100 10 -60
0 -100 -4 -100 -10 0 -5 -7 -10 -15 -10 -8 0 -15 5 -15 10 0 6 -25 10 -55 10
-30 0 -55 5 -55 10 0 6 -6 10 -13 10 -31 0 -137 122 -137 158 0 11 -4 24 -10
27 -6 4 -10 92 -10 231 l0 224 395 0 396 0 34 -75z m-3155 -1370 l0 -135
-1635 0 -1635 0 0 135 0 135 1635 0 1635 0 0 -135z m3520 -200 l0 -75 -32 0
c-18 0 -50 5 -70 11 l-38 10 0 58 c0 32 3 61 7 64 3 4 35 7 70 7 l63 0 0 -75z
m-7037 -200 c20 -4 40 -11 43 -16 3 -5 14 -9 25 -9 10 0 19 -4 19 -10 0 -5 9
-10 20 -10 11 0 20 -4 20 -10 0 -5 7 -10 15 -10 9 0 47 -32 86 -71 74 -75 135
-178 152 -259 12 -56 12 -159 0 -225 -12 -68 -66 -181 -103 -215 -16 -15 -30
-33 -30 -38 0 -6 -9 -14 -20 -17 -11 -3 -20 -13 -20 -21 0 -8 -4 -14 -9 -14
-5 0 -16 -6 -23 -13 -23 -22 -67 -47 -83 -47 -8 0 -15 -4 -15 -10 0 -5 -9 -10
-20 -10 -11 0 -20 -4 -20 -10 0 -5 -22 -10 -50 -10 -27 0 -50 -4 -50 -10 0 -6
-33 -10 -80 -10 -47 0 -80 4 -80 10 0 6 -20 10 -45 10 -25 0 -45 5 -45 10 0 6
-9 10 -20 10 -11 0 -20 5 -20 10 0 6 -9 10 -20 10 -11 0 -20 5 -20 10 0 6 -7
10 -15 10 -20 0 -175 153 -175 174 0 9 -4 16 -10 16 -5 0 -10 9 -10 20 0 11
-4 20 -10 20 -5 0 -10 8 -10 18 0 10 -3 22 -7 26 -31 31 -45 216 -22 300 13
48 69 169 81 174 4 2 8 10 8 18 0 8 5 14 10 14 6 0 10 6 10 13 0 6 13 22 28
34 15 12 41 33 57 47 17 14 36 26 43 26 6 0 12 5 12 10 0 6 9 10 20 10 11 0
20 5 20 10 0 6 11 10 25 10 14 0 25 5 25 10 0 6 12 10 28 10 15 0 34 5 42 10
16 11 176 7 243 -5z m586 -2 c-8 -10 -29 -32 -47 -51 -29 -29 -34 -31 -47 -18
-8 8 -15 21 -15 28 0 8 -9 20 -20 28 -11 8 -20 18 -20 22 0 4 37 8 81 8 76 0
80 -1 68 -17z m724 2 c20 -4 37 -11 37 -16 0 -5 11 -9 25 -9 14 0 25 -4 25
-10 0 -5 8 -10 18 -10 10 0 24 -9 32 -20 8 -11 21 -20 28 -20 17 0 120 -107
128 -132 3 -10 10 -18 15 -18 5 0 9 -9 9 -20 0 -11 5 -20 10 -20 6 0 10 -9 10
-20 0 -11 5 -20 10 -20 6 0 10 -13 10 -30 0 -16 5 -30 10 -30 6 0 10 -51 10
-134 0 -79 -4 -137 -10 -141 -5 -3 -10 -17 -10 -30 0 -13 -4 -27 -10 -30 -5
-3 -10 -15 -10 -26 0 -10 -4 -19 -9 -19 -5 0 -14 -13 -21 -30 -7 -16 -41 -58
-75 -92 -81 -81 -84 -83 -142 -108 -26 -12 -56 -26 -65 -31 -10 -5 -34 -9 -53
-9 -19 0 -35 -4 -35 -10 0 -6 -33 -10 -80 -10 -47 0 -80 4 -80 10 0 6 -20 10
-45 10 -25 0 -45 5 -45 10 0 6 -7 10 -16 10 -15 0 -92 38 -104 51 -3 3 -23 18
-45 35 -55 40 -85 71 -85 86 0 8 -9 20 -20 28 -11 8 -20 22 -20 32 0 10 -4 18
-10 18 -5 0 -10 9 -10 19 0 11 -4 23 -10 26 -5 3 -10 17 -10 30 0 13 -4 27
-10 30 -6 4 -10 62 -10 141 0 83 4 134 10 134 6 0 10 14 10 30 0 17 5 30 10
30 6 0 10 9 10 20 0 11 5 20 10 20 6 0 10 9 10 20 0 11 5 20 10 20 6 0 10 7
10 15 0 8 5 15 10 15 6 0 10 5 10 10 0 14 96 110 110 110 5 0 10 5 10 10 0 6
7 10 15 10 8 0 15 5 15 10 0 6 9 10 20 10 11 0 20 5 20 10 0 6 9 10 20 10 11
0 20 5 20 10 0 6 18 10 39 10 22 0 43 5 46 11 7 11 178 7 248 -6z m3977 9 c0
-3 -13 -19 -30 -34 -16 -15 -30 -35 -30 -44 0 -9 -4 -16 -8 -16 -20 0 -122
-235 -122 -281 0 -14 -21 -17 -142 -21 -117 -5 -877 -4 -940 1 -12 1 -18 9
-18 26 0 14 -4 25 -10 25 -5 0 -10 7 -10 15 0 19 -76 96 -126 128 -22 13 -66
34 -100 45 -58 21 -75 22 -505 22 -412 0 -448 -1 -496 -19 -61 -22 -109 -51
-140 -83 -78 -81 -93 -99 -93 -115 -1 -49 -7 -49 -300 -49 -299 0 -299 -1
-300 56 0 52 -87 240 -129 280 -16 15 -41 55 -41 65 0 3 797 5 1770 5 974 0
1770 -3 1770 -6z m713 -9 c20 -4 37 -11 37 -16 0 -5 11 -9 25 -9 14 0 25 -4
25 -10 0 -5 9 -10 20 -10 11 0 20 -4 20 -10 0 -5 7 -10 15 -10 8 0 15 -4 15
-10 0 -5 5 -10 10 -10 6 0 22 -11 36 -25 14 -14 29 -25 34 -25 6 0 10 -6 10
-13 0 -7 9 -19 20 -27 11 -8 20 -20 20 -26 0 -7 3 -14 8 -16 11 -5 52 -84 52
-102 0 -9 4 -16 9 -16 32 0 32 -336 0 -356 -5 -3 -9 -14 -9 -25 0 -10 -4 -19
-10 -19 -5 0 -10 -9 -10 -20 0 -11 -4 -20 -10 -20 -5 0 -10 -7 -10 -16 0 -21
-153 -174 -174 -174 -9 0 -16 -4 -16 -10 0 -5 -9 -10 -20 -10 -11 0 -20 -4
-20 -10 0 -5 -9 -10 -20 -10 -11 0 -20 -4 -20 -10 0 -5 -20 -10 -45 -10 -25 0
-45 -4 -45 -10 0 -6 -37 -10 -90 -10 -53 0 -90 4 -90 10 0 6 -18 10 -40 10
-22 0 -40 5 -40 10 0 6 -9 10 -20 10 -11 0 -20 5 -20 10 0 6 -7 10 -16 10 -19
0 -100 55 -134 92 -70 75 -85 96 -113 156 -51 109 -67 217 -46 316 15 74 72
196 111 236 15 17 28 34 28 40 0 5 4 10 10 10 5 0 25 16 44 35 20 19 42 35 51
35 8 0 15 5 15 10 0 6 9 10 20 10 11 0 20 5 20 10 0 6 9 10 19 10 11 0 23 5
26 10 3 6 18 10 33 10 15 0 34 5 42 10 16 11 177 7 243 -5z m-2270 -409 c20
-18 37 -43 37 -55 0 -11 5 -21 10 -21 6 0 10 -36 10 -89 0 -50 -4 -93 -10 -96
-5 -3 -10 -15 -10 -26 0 -10 -4 -19 -10 -19 -5 0 -10 -6 -10 -14 0 -8 -9 -18
-20 -21 -11 -3 -20 -11 -20 -16 0 -5 -180 -9 -455 -9 -297 0 -455 3 -455 10 0
6 -5 10 -11 10 -16 0 -39 26 -39 44 0 9 -4 16 -10 16 -6 0 -10 47 -10 120 0
73 4 120 10 120 6 0 10 4 10 10 0 15 33 50 47 50 7 0 13 5 13 10 0 7 154 10
443 10 l443 0 37 -34z"/>
<path d="M905 2840 c-3 -5 -18 -10 -33 -10 -16 0 -34 -8 -42 -20 -8 -11 -20
-20 -28 -20 -16 0 -42 -24 -42 -39 0 -6 -7 -19 -16 -30 -23 -26 -44 -88 -44
-129 0 -38 21 -112 32 -112 5 0 8 -7 8 -15 0 -8 5 -15 10 -15 6 0 10 -6 10
-13 0 -7 10 -19 21 -27 12 -8 27 -19 33 -25 25 -21 57 -35 82 -35 14 0 34 -5
44 -10 13 -7 21 -7 25 0 3 5 24 10 46 10 21 0 39 5 39 10 0 6 8 10 18 10 22 1
105 87 119 125 17 46 23 106 14 153 -10 50 -69 142 -91 142 -9 0 -22 9 -30 20
-8 12 -26 20 -42 20 -15 0 -28 5 -28 10 0 6 -22 10 -49 10 -28 0 -53 -4 -56
-10z"/>
<path d="M2205 2840 c-3 -5 -17 -10 -31 -10 -13 0 -24 -4 -24 -10 0 -5 -7 -10
-15 -10 -20 0 -85 -65 -85 -85 0 -8 -4 -15 -10 -15 -5 0 -10 -9 -10 -19 0 -11
-4 -23 -10 -26 -5 -3 -10 -37 -10 -76 0 -39 4 -69 10 -69 6 0 10 -11 10 -25 0
-14 5 -25 10 -25 6 0 10 -7 10 -15 0 -8 5 -15 10 -15 6 0 10 -6 10 -13 0 -8
10 -19 23 -25 34 -18 61 -36 68 -46 10 -12 193 -10 197 3 2 6 9 11 15 11 29 0
117 101 117 134 0 9 5 16 10 16 12 0 13 124 1 148 -5 9 -15 31 -22 47 -16 34
-53 75 -69 75 -5 0 -10 5 -10 10 0 6 -9 10 -20 10 -11 0 -20 5 -20 10 0 6 -9
10 -20 10 -11 0 -20 5 -20 10 0 6 -24 10 -54 10 -30 0 -58 -4 -61 -10z"/>
<path d="M6905 2840 c-3 -5 -19 -10 -36 -10 -16 0 -29 -4 -29 -10 0 -5 -7 -10
-15 -10 -8 0 -15 -4 -15 -10 0 -5 -5 -10 -11 -10 -17 0 -45 -35 -71 -89 -17
-35 -23 -63 -23 -117 0 -61 4 -76 29 -115 16 -24 37 -50 47 -57 10 -7 25 -19
33 -27 8 -8 22 -15 30 -15 9 0 16 -4 16 -10 0 -5 18 -10 39 -10 22 0 43 -5 46
-10 4 -7 12 -7 25 0 10 5 32 10 49 10 17 0 31 5 31 10 0 6 7 10 15 10 9 0 27
11 41 25 14 14 29 25 34 25 6 0 10 7 10 15 0 8 5 15 10 15 6 0 10 7 10 15 0 8
3 15 8 15 10 0 32 73 32 107 0 40 -23 110 -43 133 -9 11 -17 25 -17 31 0 15
-26 39 -42 39 -8 0 -20 9 -28 20 -8 12 -26 20 -42 20 -15 0 -30 5 -33 10 -3 6
-26 10 -50 10 -24 0 -47 -4 -50 -10z"/>
</g>
</svg>
