<svg fill="#000000" xmlns="http://www.w3.org/2000/svg"  viewBox="0 0 512 512" width="64px" height="64px"><path d="M 256 66.009766 C 236.653 66.009766 219.94936 78 212.31836 94 L 48.335938 94 A 20 20 0 0 0 48.335938 134 L 89.615234 134 C 89.550234 134 89.485781 134.38633 89.425781 134.48633 C 89.425781 134.49433 89.415156 134.80645 89.410156 134.81445 L 19.689453 254 L 18.529297 254 A 5.826 5.826 0 0 0 12.529297 259.79297 A 81.99 81.99 0 0 0 152.69922 317.52148 C 168.48922 301.88648 177.18555 281.51127 177.18555 259.82227 A 5.848 5.848 0 0 0 171.18555 254.00391 L 169.47852 254.00391 L 99.761719 134.91016 C 99.761719 134.90216 99.750094 134.59784 99.746094 134.58984 C 99.686094 134.48984 99.621641 134 99.556641 134 L 212.31836 134 A 43.36 43.36 0 0 0 230 154.60742 L 230 394 L 171.26953 394 C 167.95653 394 165 396.19381 165 399.50781 L 165 439.83594 A 6.38 6.38 0 0 0 171.26953 446 L 340.73047 446 A 6.38 6.38 0 0 0 347 439.83594 L 347 399.50781 C 347 396.19381 344.04347 394 340.73047 394 L 282 394 L 282 154.60742 A 43.36 43.36 0 0 0 299.68164 134 L 412.44336 134 C 412.37836 134 412.31391 134.38633 412.25391 134.48633 C 412.25391 134.49433 412.24328 134.80645 412.23828 134.81445 L 342.51758 254 L 340.81055 254 A 5.826 5.826 0 0 0 334.81055 259.79297 A 81.99 81.99 0 0 0 474.98438 317.52148 C 490.77438 301.88648 499.4707 281.51127 499.4707 259.82227 A 5.848 5.848 0 0 0 493.4707 254 L 492.31055 254 L 422.58984 134.91016 C 422.58984 134.90216 422.57822 134.59784 422.57422 134.58984 C 422.51422 134.48984 422.44977 134 422.38477 134 L 462.65625 134 A 20 20 0 0 0 462.65625 94 L 299.68164 94 C 292.05064 78 275.347 66.009766 256 66.009766 z M 254.49805 78.195312 A 36.106 36.106 0 0 1 292.10547 114.27148 A 36.147 36.147 0 0 1 256 150.37695 A 36.106 36.106 0 0 1 254.49805 78.195312 z M 256 90.146484 A 24.125 24.125 0 1 0 280.125 114.27148 A 24.152 24.152 0 0 0 256 90.146484 z M 255.49609 102.15625 A 12.125 12.125 0 0 1 268.125 114.27148 A 12.138 12.138 0 0 1 256 126.40039 L 256 126.39648 A 12.125 12.125 0 0 1 255.49609 102.15625 z M 48.335938 106 L 208.5918 106 A 50.277 50.277 0 0 0 207.89258 114 A 41.648 41.648 0 0 0 208.5918 122 L 48.335938 122 A 8 8 0 0 1 48.335938 106 z M 303.4082 106 L 462.65625 106 A 8 8 0 0 1 462.65625 122 L 303.4082 122 A 41.648 41.648 0 0 0 304.10742 114 A 50.277 50.277 0 0 0 303.4082 106 z M 94.585938 150.01367 L 155.57031 254 L 33.599609 254 L 94.585938 150.01367 z M 417.41406 150.01367 L 478.40039 254 L 356.42969 254 L 417.41406 150.01367 z M 242 160.24609 A 47.053 47.053 0 0 0 270 160.24609 L 270 394 L 242 394 L 242 160.24609 z M 487.19336 265.8457 C 483.98236 301.1137 453.08419 329.64063 416.86719 329.64062 A 69.97 69.97 0 0 1 347.08789 266 A 3.005 3.005 0 0 1 347.79688 266 L 487.0293 266 C 487.0833 266 487.13936 265.8277 487.19336 265.8457 z M 24.791016 265.85156 C 24.850016 265.83156 24.90975 266 24.96875 266 L 164.19922 266 A 2.93 2.93 0 0 1 164.89453 266 C 161.60853 301.2 130.74994 329.64063 94.585938 329.64062 A 69.971 69.971 0 0 1 24.791016 265.85156 z M 177 406 L 335 406 L 335 434 L 177 434 L 177 406 z"/></svg>