<?xml version="1.0" standalone="no"?>
<!DOCTYPE svg PUBLIC "-//W3C//DTD SVG 20010904//EN"
 "http://www.w3.org/TR/2001/REC-SVG-20010904/DTD/svg10.dtd">
<svg version="1.0" xmlns="http://www.w3.org/2000/svg"
 width="512.000000pt" height="512.000000pt" viewBox="0 0 512.000000 512.000000"
 preserveAspectRatio="xMidYMid meet">

<g transform="translate(0.000000,512.000000) scale(0.100000,-0.100000)"
fill="#fff" stroke="none">
<path d="M1862 5100 c-21 -20 -22 -28 -22 -200 0 -167 1 -181 20 -200 22 -22
60 -26 90 -10 29 15 40 65 40 176 l0 104 570 0 570 0 0 -415 0 -415 -145 0
-145 0 0 250 0 251 -25 24 -24 25 -231 0 -231 0 -24 -25 -25 -24 0 -251 0
-250 -145 0 -145 0 0 139 c0 144 -10 195 -40 211 -26 14 -63 12 -86 -4 -17
-13 -19 -31 -24 -182 l-5 -168 -85 -17 c-394 -80 -690 -373 -771 -764 -18 -85
-19 -156 -19 -1245 0 -1274 -3 -1210 63 -1334 65 -122 218 -241 336 -261 l41
-7 0 -229 0 -230 25 -24 24 -25 1111 0 1111 0 24 25 25 24 0 230 0 229 41 7
c118 20 271 139 336 261 65 122 63 90 63 1041 0 850 0 863 -20 883 -33 33 -75
30 -107 -6 l-23 -25 0 -695 0 -694 -1075 0 -1076 0 -26 -26 c-20 -20 -24 -31
-19 -57 13 -67 -73 -62 1117 -65 l1081 -2 -4 -103 c-3 -87 -8 -111 -33 -162
-36 -76 -104 -143 -180 -181 l-60 -29 -1175 0 -1175 0 -60 29 c-76 38 -144
105 -180 181 -25 51 -30 75 -33 163 l-4 102 235 0 c222 0 236 1 261 21 33 26
36 79 6 109 -19 19 -33 20 -260 20 l-240 0 0 979 c0 538 3 993 6 1010 l7 31
1438 0 c792 0 1440 -1 1440 -2 1 -2 4 -83 8 -180 7 -194 9 -202 68 -214 26 -5
37 -1 59 21 l26 26 -5 187 c-3 145 -9 204 -25 263 -101 377 -399 653 -777 722
l-70 12 -3 470 c-2 465 -2 469 -24 492 l-21 23 -677 0 c-667 0 -677 0 -698
-20z m828 -760 l0 -200 -130 0 -130 0 0 200 0 200 130 0 130 0 0 -200z m705
-378 c229 -64 423 -222 526 -427 l40 -80 -700 -3 c-386 -1 -1016 -1 -1401 0
l-700 3 30 64 c89 187 259 343 453 416 141 53 163 54 947 52 718 -3 726 -3
805 -25z m175 -3637 l0 -175 -1010 0 -1010 0 0 175 0 175 1010 0 1010 0 0
-175z"/>
<path d="M2663 3069 c-196 -101 -339 -273 -389 -469 -14 -54 -22 -70 -34 -67
-124 38 -151 42 -178 27 -51 -29 -120 -252 -129 -420 -6 -132 12 -225 66 -335
85 -172 242 -293 432 -335 89 -20 248 -9 339 23 295 104 471 420 406 728 -18
81 -35 116 -130 261 -136 208 -190 328 -220 489 -13 66 -22 89 -42 107 -33 29
-50 28 -121 -9z m44 -259 c35 -124 71 -195 193 -380 116 -176 140 -233 140
-337 0 -106 -38 -221 -100 -298 l-30 -38 0 57 c0 67 -25 138 -73 203 -57 79
-84 144 -111 266 -9 37 -40 67 -71 67 -72 0 -206 -114 -250 -211 -25 -56 -29
-60 -52 -54 -44 11 -79 -12 -102 -64 -28 -67 -40 -126 -41 -200 l0 -64 -30 38
c-72 91 -106 211 -97 345 7 85 41 237 57 254 6 6 39 1 84 -12 88 -26 129 -28
150 -6 17 17 19 24 36 134 12 85 59 192 112 258 39 49 139 133 152 129 5 -2
19 -41 33 -87z m-10 -847 c52 -77 58 -92 61 -147 3 -72 -19 -120 -81 -170 -36
-29 -45 -31 -117 -31 -72 0 -81 2 -117 31 -72 59 -98 138 -77 242 6 30 7 31
55 25 39 -5 54 -2 69 12 18 16 22 27 35 106 3 20 20 56 37 80 l32 44 23 -53
c13 -29 49 -92 80 -139z"/>
</g>
</svg>
