<?xml version="1.0" standalone="no"?><!DOCTYPE svg PUBLIC "-//W3C//DTD SVG 1.1//EN" "http://www.w3.org/Graphics/SVG/1.1/DTD/svg11.dtd"><svg className="icon" height="512" viewBox="0 0 1024 1024" version="1.1" xmlns="http://www.w3.org/2000/svg"><path fill="rgb(189, 212, 0)" d="M111.334 254.698c0.532-1.17 1.27-2.288 1.566-3.514 6.086-25.204 24.682-40.022 50.88-40.05 78.164-0.084 156.33-0.044 234.496-0.046 53.852 0 107.706-0.024 161.558 0.028 31.966 0.032 53.22 21.14 53.228 52.918 0.034 113.196 0.014 226.392 0.012 339.586 0 2.546 0 5.09 0 8.488-7.738 0-14.726 0-21.714 0-149.01-0.002-298.02-0.146-447.03 0.204-16.03 0.038-27.282-4.904-32.998-20.28C111.334 479.588 111.334 367.144 111.334 254.698zM914.666 717.554c-9.248 21.048-19.302 21.502-46.616 19.226 3.098-39.47-9.798-72.948-39.352-99.372-22.342-19.974-49.02-29.56-78.988-29.158-69.498 0.932-122.478 62.212-114.924 128.84-72.612 0-145.166 0-218.666 0 1.608-18.33-0.414-36.23-7.164-53.444-6.76-17.242-17.344-31.888-31.898-45.784 88.084 0 174.45 0 261.368 0 0.164-3.232 0.402-5.76 0.404-8.29 0.024-93.348 0.032-186.696 0.026-280.044-0.002-23.902 14.09-38.024 37.958-38.014 31.64 0.014 63.28 0.148 94.916-0.072 11.608-0.08 19.692 4.406 25.506 14.678 27.926 49.324 56.508 98.278 84.024 147.826 4.728 8.514 7.44 19.228 7.628 28.992 0.812 42.344 0.344 84.712 0.34 127.072 0 2.322 0 4.644 0 7.65 13.492 0.824 20.904 8.842 25.438 20.27C914.666 677.806 914.666 697.68 914.666 717.554zM752.422 462.136c18.29 0 36.58 0.036 54.87-0.014 9.308-0.026 11.27-3.354 6.622-11.532-15.862-27.91-31.684-55.846-47.962-83.512-1.702-2.892-6.288-5.67-9.612-5.76-19.582-0.538-39.188-0.088-58.78-0.362-6.696-0.094-9.334 2.21-9.272 9.09 0.25 27.694 0.256 55.392 0.01 83.086-0.062 6.872 2.552 9.212 9.256 9.11C715.84 461.962 734.132 462.144 752.422 462.136zM111.334 657.932c5.796-15.874 17.518-20.8 33.77-20.272 25.038 0.812 50.124 0.214 76.848 0.214-28.696 27.68-42.41 60.114-38.814 99.504-16.956 0-33.396 0.63-49.758-0.212-11.824-0.608-17.82-9.536-22.044-19.612C111.334 697.68 111.334 677.806 111.334 657.932zM212.098 725.312c0.05-47.958 39.43-87.36 87.384-87.428 47.932-0.068 87.698 39.488 87.652 87.19-0.048 48.466-39.35 87.782-87.814 87.846C251.604 812.982 212.05 773.252 212.098 725.312zM299.39 763.386c20.978 0.06 38.032-16.634 38.212-37.41 0.186-21.444-16.598-38.572-37.784-38.562-21.452 0.01-38.172 16.718-38.188 38.166C261.614 746.452 278.468 763.326 299.39 763.386zM839.002 725.256c0.082 47.866-39.358 87.506-87.218 87.656-47.952 0.152-87.592-39.114-87.844-87.012-0.252-48.308 39.29-88.054 87.598-88.048C799.422 637.858 838.92 677.328 839.002 725.256zM751.246 687.412c-20.906 0.066-37.704 16.902-37.744 37.83-0.042 21.37 16.834 38.198 38.224 38.112 21.32-0.086 37.872-17.016 37.718-38.586C789.292 703.918 772.346 687.344 751.246 687.412z" /></svg>