<?xml version="1.0" standalone="no"?>
<!DOCTYPE svg PUBLIC "-//W3C//DTD SVG 20010904//EN"
 "http://www.w3.org/TR/2001/REC-SVG-20010904/DTD/svg10.dtd">
<svg version="1.0" xmlns="http://www.w3.org/2000/svg"
 width="512.000000pt" height="512.000000pt" viewBox="0 0 512.000000 512.000000"
 preserveAspectRatio="xMidYMid meet">

<g transform="translate(0.000000,512.000000) scale(0.100000,-0.100000)"
fill="#fff" stroke="none">
<path d="M1625 5015 l-25 -24 0 -296 0 -295 -68 0 c-228 0 -420 -148 -477
-367 -13 -48 -15 -165 -15 -725 l0 -668 -55 0 c-46 0 -60 -4 -80 -25 -25 -24
-25 -26 -25 -215 0 -189 0 -191 25 -215 20 -21 34 -25 80 -25 l55 0 0 -668 c0
-567 2 -677 15 -727 49 -187 205 -328 395 -358 l70 -11 0 -133 c0 -129 1 -135
25 -158 l24 -25 991 0 991 0 24 25 c24 23 25 29 25 158 l0 133 70 11 c197 31
364 190 400 382 6 32 10 316 10 712 l0 659 55 0 c46 0 60 4 80 25 25 24 25 26
25 215 0 189 0 191 -25 215 -20 21 -34 25 -80 25 l-55 0 0 659 c0 406 -4 679
-10 712 -43 224 -247 389 -482 389 l-68 0 0 295 0 296 -25 24 c-24 25 -26 25
-215 25 -189 0 -191 0 -215 -25 l-25 -24 0 -296 0 -295 -200 0 -200 0 0 80 0
80 95 0 c88 0 98 2 120 25 16 15 25 36 25 55 0 19 -9 40 -25 55 l-24 25 -271
0 -271 0 -24 -25 c-16 -15 -25 -36 -25 -55 0 -19 9 -40 25 -55 22 -23 32 -25
120 -25 l95 0 0 -80 0 -80 -200 0 -200 0 0 295 0 296 -25 24 c-24 25 -26 25
-215 25 -189 0 -191 0 -215 -25z m295 -375 l0 -240 -80 0 -80 0 0 240 0 240
80 0 80 0 0 -240z m1440 0 l0 -240 -80 0 -80 0 0 240 0 240 80 0 80 0 0 -240z
m376 -432 c76 -40 107 -70 145 -140 l34 -63 3 -682 3 -683 -174 0 -173 0 -23
73 c-103 324 -359 578 -686 680 -541 169 -1124 -137 -1296 -680 l-23 -73 -173
0 -174 0 3 683 3 682 27 51 c15 28 38 64 52 81 27 32 113 82 160 94 17 4 528
6 1136 6 l1105 -2 51 -27z m-1021 -943 c336 -59 606 -310 698 -650 29 -107 30
-316 3 -419 -88 -331 -321 -564 -652 -652 -104 -28 -312 -26 -421 4 -163 44
-297 122 -413 242 -334 344 -330 892 9 1231 204 204 489 294 776 244z m-1195
-865 l0 -80 -240 0 -240 0 0 80 0 80 240 0 240 0 0 -80z m2560 0 l0 -80 -240
0 -240 0 0 80 0 80 240 0 240 0 0 -80z m-2511 -312 c103 -325 358 -578 686
-681 480 -151 1007 75 1233 528 22 44 50 113 63 153 l23 72 173 0 174 0 -3
-682 -3 -683 -27 -51 c-40 -76 -70 -107 -140 -145 l-63 -34 -1125 0 -1125 0
-51 27 c-76 40 -107 70 -145 140 l-34 63 -3 683 -3 682 174 0 173 0 23 -72z
m1871 -1768 l0 -80 -880 0 -880 0 0 80 0 80 880 0 880 0 0 -80z"/>
<path d="M2707 3178 c-14 -13 -169 -186 -346 -385 -350 -395 -350 -395 -296
-448 23 -24 29 -25 156 -25 l132 0 -6 -37 c-3 -21 -20 -169 -38 -330 -30 -274
-31 -294 -15 -318 19 -29 59 -42 92 -29 13 5 175 179 359 387 365 411 364 409
310 462 -23 24 -29 25 -155 25 -71 0 -130 2 -130 4 0 2 16 144 35 316 19 172
35 321 35 331 0 11 -11 31 -25 44 -31 32 -76 33 -108 3z m-81 -543 c-31 -271
-31 -257 -7 -286 17 -21 30 -25 109 -29 l90 -5 -171 -192 c-94 -106 -172 -191
-174 -189 -2 2 7 106 21 231 31 271 31 257 7 286 -17 21 -30 25 -109 29 l-90
5 171 192 c94 106 172 191 174 189 2 -2 -7 -106 -21 -231z"/>
</g>
</svg>
