<?xml version="1.0" standalone="no"?>
<!DOCTYPE svg PUBLIC "-//W3C//DTD SVG 20010904//EN"
 "http://www.w3.org/TR/2001/REC-SVG-20010904/DTD/svg10.dtd">
<svg version="1.0" xmlns="http://www.w3.org/2000/svg"
 width="150.000000pt" height="150.000000pt" viewBox="0 0 150.000000 150.000000"
 preserveAspectRatio="xMidYMid meet">

<g transform="translate(0.000000,150.000000) scale(0.100000,-0.100000)"
fill="#fff" stroke="none">
<path d="M520 1484 c-80 -2 -155 -6 -167 -9 -53 -12 -53 -10 -53 -729 l0 -665
-57 -3 c-57 -3 -58 -3 -61 -35 l-3 -33 505 0 506 0 0 35 0 35 -60 0 -60 0 0
118 0 117 51 50 c118 115 199 344 199 559 0 191 -73 305 -212 330 l-38 7 0 75
c0 80 -16 126 -47 139 -22 8 -306 13 -503 9z m478 -735 l-3 -670 -312 -2 -313
-2 0 673 0 672 315 0 315 0 -2 -671z m129 440 c38 -14 80 -56 106 -104 20 -36
22 -54 21 -180 -1 -121 -5 -152 -28 -230 -31 -102 -87 -213 -128 -252 l-28
-27 0 402 c0 438 -4 414 57 391z"/>
<path d="M452 1337 c-18 -19 -22 -37 -24 -109 -3 -79 -1 -88 21 -112 l24 -26
212 0 c208 0 212 0 233 23 19 20 22 35 22 114 0 87 -1 93 -26 112 -25 20 -39
21 -234 21 -202 0 -207 0 -228 -23z m428 -112 l0 -75 -195 0 -195 0 0 75 0 75
195 0 195 0 0 -75z"/>
<path d="M765 988 c-3 -7 -4 -106 -3 -218 l3 -205 92 -1 91 -1 0 217 0 216
-89 3 c-67 2 -90 -1 -94 -11z m116 -208 l0 -145 -30 -3 -31 -3 0 151 0 151 31
-3 30 -3 0 -145z"/>
</g>
</svg>
