<?xml version="1.0" standalone="no"?>
<!DOCTYPE svg PUBLIC "-//W3C//DTD SVG 20010904//EN"
 "http://www.w3.org/TR/2001/REC-SVG-20010904/DTD/svg10.dtd">
<svg version="1.0" xmlns="http://www.w3.org/2000/svg"
 width="1920.000000pt" height="1920.000000pt" viewBox="0 0 1920.000000 1920.000000"
 preserveAspectRatio="xMidYMid meet">

<g transform="translate(0.000000,1920.000000) scale(0.100000,-0.100000)"
fill="#fff" stroke="none">
<path d="M7960 12424 c-369 -33 -554 -57 -815 -110 -431 -86 -874 -241 -1199
-419 -65 -36 -270 -170 -455 -298 -185 -127 -417 -287 -516 -355 -332 -228
-496 -292 -1238 -482 -485 -125 -584 -157 -747 -241 -194 -99 -283 -188 -382
-376 -170 -324 -206 -587 -210 -1553 -2 -486 -2 -496 20 -560 67 -200 223
-343 417 -383 55 -11 130 -13 343 -9 244 4 272 6 268 21 -32 104 -39 406 -13
558 108 630 567 1120 1182 1261 522 120 1065 -35 1440 -413 343 -344 508 -832
440 -1300 -8 -55 -15 -104 -15 -109 0 -8 6089 -2 6095 6 2 2 -4 48 -11 103
-63 474 96 950 431 1290 385 391 927 547 1460 420 555 -131 1004 -569 1139
-1112 59 -238 67 -405 30 -665 l-7 -48 484 0 c526 0 503 -2 551 55 25 28 76
164 103 270 47 187 57 655 20 966 -36 306 -114 557 -223 715 -157 229 -519
427 -1080 588 -298 86 -1277 271 -1617 306 -235 25 -337 62 -461 170 -151 131
-238 197 -449 341 -121 83 -283 194 -361 247 -184 127 -319 202 -588 330 -493
233 -769 335 -1282 475 -529 145 -1023 231 -1646 288 -182 17 -323 22 -648 24
-228 1 -435 1 -460 -1z m665 -554 c14 -16 30 -121 86 -592 38 -315 66 -581 63
-591 -3 -10 -15 -22 -27 -26 -12 -4 -535 -2 -1162 5 -627 7 -1333 13 -1570 13
-468 1 -477 2 -483 55 -3 25 7 39 62 92 448 428 954 714 1548 873 459 123 891
185 1334 190 119 1 133 -1 149 -19z m876 -5 c769 -77 1469 -275 2119 -600 361
-180 614 -347 867 -572 75 -67 89 -89 79 -129 -15 -57 85 -58 -1591 5 -847 32
-1548 62 -1558 66 -10 4 -22 16 -28 27 -11 21 -159 1080 -159 1140 0 51 28 78
79 78 21 0 107 -7 192 -15z"/>
<path d="M4785 9156 c-263 -43 -486 -156 -665 -336 -143 -142 -241 -301 -299
-485 -42 -131 -55 -223 -54 -375 2 -434 228 -815 613 -1036 202 -116 467 -170
703 -145 275 30 516 143 712 336 230 226 346 486 361 805 27 578 -367 1093
-936 1221 -112 25 -329 33 -435 15z"/>
<path d="M13916 9155 c-126 -21 -239 -57 -355 -115 -464 -233 -724 -736 -647
-1250 74 -487 447 -885 926 -988 513 -111 1027 114 1291 564 276 470 200 1061
-186 1450 -168 169 -373 279 -610 329 -111 23 -308 28 -419 10z"/>
</g>
</svg>
