<?xml version="1.0" standalone="no"?>
<!DOCTYPE svg PUBLIC "-//W3C//DTD SVG 20010904//EN"
 "http://www.w3.org/TR/2001/REC-SVG-20010904/DTD/svg10.dtd">
<svg version="1.0" xmlns="http://www.w3.org/2000/svg"
 width="512.000000pt" height="512.000000pt" viewBox="0 0 512.000000 512.000000"
 preserveAspectRatio="xMidYMid meet">

<g transform="translate(0.000000,512.000000) scale(0.100000,-0.100000)"
fill="#fff" stroke="none">
<path d="M955 5108 c-42 -24 -44 -36 -45 -235 0 -185 1 -193 23 -218 17 -20
34 -27 80 -32 l57 -6 0 -106 0 -107 -64 -42 c-119 -78 -216 -216 -248 -352
-10 -44 -13 -408 -13 -1790 l0 -1735 22 -70 c65 -205 245 -367 447 -404 83
-15 2609 -15 2692 0 202 37 382 199 447 404 l22 70 0 1745 c0 1666 -1 1748
-18 1805 -30 97 -77 175 -152 250 -81 82 -160 127 -271 155 -74 19 -114 20
-976 20 l-898 0 0 79 0 78 62 6 c51 5 67 10 85 32 22 25 23 33 23 210 0 196
-6 225 -47 244 -35 16 -1200 15 -1228 -1z m1105 -238 l0 -80 -495 0 -495 0 0
80 0 80 495 0 495 0 0 -80z m-160 -330 l0 -80 -307 0 c-170 0 -318 -3 -330 -6
-23 -6 -23 -5 -23 80 l0 86 330 0 330 0 0 -80z m1347 -1212 l963 -963 0 -921
c0 -990 1 -963 -51 -1066 -30 -59 -116 -138 -188 -172 l-66 -31 -1345 0 -1345
0 -66 31 c-72 34 -158 113 -188 172 -54 106 -51 4 -51 1853 0 1663 1 1709 19
1770 33 105 107 195 201 244 82 43 94 44 635 44 l520 1 962 -962z m715 930
c115 -54 192 -141 229 -257 18 -60 19 -97 19 -734 l0 -672 -165 165 -165 165
0 414 c0 288 -4 426 -12 453 -15 51 -82 126 -133 149 -37 17 -74 19 -465 19
l-425 0 -165 165 -165 165 695 -2 695 -3 57 -27z m-270 -486 c23 -22 23 -25
26 -347 2 -179 -1 -325 -5 -325 -4 0 -166 158 -358 350 l-350 351 332 -3 c331
-3 333 -3 355 -26z"/>
<path d="M1327 4119 c-57 -13 -109 -43 -154 -89 -51 -51 -81 -110 -93 -186
-13 -79 -13 -3149 0 -3228 19 -115 86 -206 190 -255 l55 -26 1235 0 1235 0 55
26 c104 49 171 140 190 255 14 83 13 1604 0 1641 -11 29 -1765 1792 -1834
1844 l-39 29 -401 -1 c-221 -1 -418 -5 -439 -10z m1671 -1042 l882 -882 -2
-797 c-3 -790 -3 -797 -24 -825 -11 -15 -36 -38 -54 -51 l-33 -22 -1207 0
-1207 0 -33 23 c-18 12 -43 35 -54 50 l-21 28 0 1629 0 1629 21 28 c11 15 36
38 54 51 33 22 35 22 414 22 l381 0 883 -883z"/>
<path d="M2428 2619 c-15 -13 -107 -172 -206 -354 -225 -413 -244 -452 -275
-550 -93 -296 -43 -553 143 -728 115 -109 235 -157 390 -157 156 0 273 48 395
162 124 115 176 243 176 429 1 167 -31 299 -106 449 -62 124 -396 734 -409
748 -7 7 -28 15 -47 18 -28 5 -41 1 -61 -17z m205 -516 c80 -148 162 -302 182
-344 41 -88 75 -234 75 -329 0 -226 -140 -396 -355 -433 -192 -33 -392 101
-450 300 -34 118 -13 314 50 452 47 103 338 630 345 626 4 -3 73 -125 153
-272z"/>
<path d="M2636 1365 c-10 -51 -60 -103 -112 -117 l-44 -12 0 -82 0 -81 50 8
c142 22 247 133 274 287 l6 32 -84 0 -84 0 -6 -35z"/>
</g>
</svg>
